<svg xmlns="http://www.w3.org/2000/svg" width="16" height="16" viewBox="0 0 16 16">
  <g id="current_train_location_icon" transform="translate(-113 -468)" fill="#fff">
    <path id="Path_16727" data-name="Path 16727" d="M9.649,2.4a4.524,4.524,0,0,0-.335,1.4H5.8A1.4,1.4,0,0,0,4.4,5.1l0,.1v7.7h9.8V8.687a4.524,4.524,0,0,0,1.4-.336V12.9a1.4,1.4,0,0,1-1.4,1.4H12.94l1.26,1.05v.35H4.4v-.35L5.66,14.3H4.4A1.4,1.4,0,0,1,3,12.9V5.2A2.8,2.8,0,0,1,5.8,2.4ZM9.3,9.4a1.4,1.4,0,1,1-1.4,1.4A1.4,1.4,0,0,1,9.3,9.4Zm.122-4.2a4.557,4.557,0,0,0,2,2.8H5.1V5.2ZM13.85,1A3.15,3.15,0,1,1,10.7,4.15,3.15,3.15,0,0,1,13.85,1Zm0,3.617a1.394,1.394,0,0,0-.9.329l-.088.081.99.99.989-.991A1.4,1.4,0,0,0,13.85,4.617Zm0-1.867a3.255,3.255,0,0,0-2.189.842l-.121.115.661.659a2.333,2.333,0,0,1,3.191-.1l.109.1.66-.66A3.256,3.256,0,0,0,13.85,2.75Z" transform="translate(111 467.6)" fill="#42454e"/>
    <rect id="Rectangle_4791" data-name="Rectangle 4791" width="16" height="16" transform="translate(113 468)" fill="none"/>
  </g>
</svg>
