<svg xmlns="http://www.w3.org/2000/svg" xmlns:xlink="http://www.w3.org/1999/xlink" width="32" height="32" viewBox="0 0 32 32">
  <defs>
    <filter id="Rectangle_5225" x="0" y="0" width="32" height="32" filterUnits="userSpaceOnUse">
      <feOffset dy="2" input="SourceAlpha"/>
      <feGaussianBlur stdDeviation="2" result="blur"/>
      <feFlood flood-opacity="0.161"/>
      <feComposite operator="in" in2="blur"/>
      <feComposite in="SourceGraphic"/>
    </filter>
  </defs>
  <g id="train_location_icon" transform="translate(3920 -5968)">
    <g transform="matrix(1, 0, 0, 1, -3920, 5968)" filter="url(#Rectangle_5225)">
      <rect id="Rectangle_5225-2" data-name="Rectangle 5225" width="20" height="20" rx="6" transform="translate(6 4)" fill="#fff"/>
    </g>
    <path id="train_24dp_FILL1_wght400_GRAD0_opsz24" d="M160-871.474v-6a1.957,1.957,0,0,1,.434-1.334,2.732,2.732,0,0,1,1.145-.758,6.5,6.5,0,0,1,1.618-.347q.908-.087,1.855-.087,1.042,0,1.966.087a6.186,6.186,0,0,1,1.611.347,2.453,2.453,0,0,1,1.082.758,2.086,2.086,0,0,1,.395,1.334v6a2.135,2.135,0,0,1-.639,1.571,2.135,2.135,0,0,1-1.571.64l.947.947V-868h-1.263l-1.263-1.263h-2.526L162.526-868h-1.263v-.316l.947-.947a2.135,2.135,0,0,1-1.571-.64A2.135,2.135,0,0,1,160-871.474Zm1.263-3.474h3.158v-1.895h-3.158Zm4.421,0h3.158v-1.895h-3.158Zm-2.842,3.789a.92.92,0,0,0,.679-.268.92.92,0,0,0,.268-.679.92.92,0,0,0-.268-.679.92.92,0,0,0-.679-.268.92.92,0,0,0-.679.268.92.92,0,0,0-.268.679.92.92,0,0,0,.268.679A.92.92,0,0,0,162.842-871.158Zm4.421,0a.92.92,0,0,0,.679-.268.92.92,0,0,0,.268-.679.92.92,0,0,0-.268-.679.921.921,0,0,0-.679-.268.92.92,0,0,0-.679.268.92.92,0,0,0-.268.679.92.92,0,0,0,.268.679A.92.92,0,0,0,167.263-871.158Z" transform="translate(-4069 6856.005)" fill="#334ffc"/>
  </g>
</svg>
