<svg xmlns="http://www.w3.org/2000/svg" width="24" height="24" viewBox="0 0 24 24">
  <g id="train_on_map_icon" transform="translate(-199 -225)">
    <g id="Ellipse_160" data-name="Ellipse 160" transform="translate(201 227)" fill="#FF981A" stroke="#fff" stroke-width="2">
      <circle cx="10" cy="10" r="10" stroke="none"/>
      <circle cx="10" cy="10" r="11" fill="none"/>
    </g>
    <path id="train_FILL0_wght400_GRAD0_opsz24_1_" data-name="train_FILL0_wght400_GRAD0_opsz24 (1)" d="M160-871.474v-6a1.958,1.958,0,0,1,.434-1.334,2.732,2.732,0,0,1,1.145-.758,6.5,6.5,0,0,1,1.618-.347q.908-.087,1.855-.087,1.042,0,1.966.087a6.181,6.181,0,0,1,1.611.347,2.453,2.453,0,0,1,1.082.758,2.087,2.087,0,0,1,.395,1.334v6a2.136,2.136,0,0,1-.64,1.571,2.136,2.136,0,0,1-1.571.639l.947.947V-868h-1.263l-1.263-1.263h-2.526L162.526-868h-1.263v-.316l.947-.947a2.136,2.136,0,0,1-1.571-.639A2.136,2.136,0,0,1,160-871.474Zm5.053-7.263a10.871,10.871,0,0,0-2.447.2,2.86,2.86,0,0,0-1.058.434h7.074a2.02,2.02,0,0,0-1.018-.45A12.572,12.572,0,0,0,165.053-878.737Zm-3.789,3.79h3.158v-1.895h-3.158Zm6.632,1.263h0Zm-2.211-1.263h3.158v-1.895h-3.158Zm-2.842,3.789a.92.92,0,0,0,.679-.268.92.92,0,0,0,.268-.679.92.92,0,0,0-.268-.679.92.92,0,0,0-.679-.268.92.92,0,0,0-.679.268.92.92,0,0,0-.268.679.92.92,0,0,0,.268.679A.92.92,0,0,0,162.842-871.158Zm4.421,0a.92.92,0,0,0,.679-.268.92.92,0,0,0,.268-.679.92.92,0,0,0-.268-.679.92.92,0,0,0-.679-.268.92.92,0,0,0-.679.268.92.92,0,0,0-.268.679.92.92,0,0,0,.268.679A.92.92,0,0,0,167.263-871.158Zm-5.053.632h5.684a.921.921,0,0,0,.679-.269.92.92,0,0,0,.268-.679v-2.211h-7.579v2.211a.92.92,0,0,0,.268.679A.921.921,0,0,0,162.211-870.526Zm2.842-7.579h0Z" transform="translate(45.835 1110.951)" fill="#fff"/>
  </g>
</svg>