<svg xmlns="http://www.w3.org/2000/svg" width="24" height="24" viewBox="0 0 24 24">
  <g id="active_fnr_dashboard_icon" transform="translate(-20 -95)">
    <path id="control_room_icon" d="M1,2.929A1.929,1.929,0,0,1,2.929,1H6.786A1.929,1.929,0,0,1,8.714,2.929V6.786A1.929,1.929,0,0,1,6.786,8.714H2.929A1.929,1.929,0,0,1,1,6.786Zm10.286,0A1.929,1.929,0,0,1,13.214,1h3.857A1.929,1.929,0,0,1,19,2.929V6.786a1.929,1.929,0,0,1-1.929,1.929H13.214a1.929,1.929,0,0,1-1.929-1.929ZM1,13.214a1.929,1.929,0,0,1,1.929-1.929H6.786a1.929,1.929,0,0,1,1.929,1.929v3.857A1.929,1.929,0,0,1,6.786,19H2.929A1.929,1.929,0,0,1,1,17.071Zm10.286,0a1.929,1.929,0,0,1,1.929-1.929h3.857A1.929,1.929,0,0,1,19,13.214v3.857A1.929,1.929,0,0,1,17.071,19H13.214a1.929,1.929,0,0,1-1.929-1.929Z" transform="translate(21.965 96.965)" fill="#20104d"/>
    <rect id="Rectangle_4572" data-name="Rectangle 4572" width="24" height="24" transform="translate(20 95)" fill="none"/>
  </g>
</svg>
