<svg width="129" height="38" viewBox="0 0 129 38" fill="none" xmlns="http://www.w3.org/2000/svg">
<mask id="path-1-inside-1_1_9" fill="white">
<path d="M0 20C0 8.9543 8.95431 0 20 0H109C120.046 0 129 8.95431 129 20V38H0V20Z"/>
</mask>
<path d="M0 20C0 8.9543 8.95431 0 20 0H109C120.046 0 129 8.95431 129 20V38H0V20Z" fill="white"/>
<path d="M-1 20C-1 8.40202 8.40202 -1 20 -1H109C120.598 -1 130 8.40202 130 20H128C128 9.50659 119.493 1 109 1H20C9.50659 1 1 9.50659 1 20H-1ZM129 38H0H129ZM-1 38V20C-1 8.40202 8.40202 -1 20 -1V1C9.50659 1 1 9.50659 1 20V38H-1ZM109 -1C120.598 -1 130 8.40202 130 20V38H128V20C128 9.50659 119.493 1 109 1V-1Z" fill="#EAEAEA" mask="url(#path-1-inside-1_1_9)"/>
<path d="M-1 20C-1 8.40202 8.40202 -1 20 -1H109C120.598 -1 130 8.40202 130 20H128C128 9.50659 119.493 1 109 1H20C9.50659 1 1 9.50659 1 20H-1ZM129 38H0H129ZM-1 38V20C-1 8.40202 8.40202 -1 20 -1V1C9.50659 1 1 9.50659 1 20V38H-1ZM109 -1C120.598 -1 130 8.40202 130 20V38H128V20C128 9.50659 119.493 1 109 1V-1Z" fill="black" fill-opacity="0.2" mask="url(#path-1-inside-1_1_9)"/>
<path d="M26 10L65.4706 28L103 10" stroke="#7E7E7E"/>
</svg>
