<svg width="130" height="39" viewBox="0 0 130 39" fill="none" xmlns="http://www.w3.org/2000/svg">
<mask id="path-1-inside-1_0_1" fill="white">
<path d="M130 20C130 8.95431 121.046 0 110 0H20C8.9543 0 0 8.95431 0 20V39H130V20Z"/>
</mask>
<path d="M130 20C130 8.95431 121.046 0 110 0H20C8.9543 0 0 8.95431 0 20V39H130V20Z" fill="white"/>
<path d="M131 20C131 8.40202 121.598 -1 110 -1H20C8.40202 -1 -1 8.40202 -1 20H1C1 9.50659 9.50659 1 20 1H110C120.493 1 129 9.50659 129 20H131ZM0 39H130H0ZM131 39V20C131 8.40202 121.598 -1 110 -1V1C120.493 1 129 9.50659 129 20V39H131ZM20 -1C8.40202 -1 -1 8.40202 -1 20V39H1V20C1 9.50659 9.50659 1 20 1V-1Z" fill="#EAEAEA" mask="url(#path-1-inside-1_0_1)"/>
<path d="M131 20C131 8.40202 121.598 -1 110 -1H20C8.40202 -1 -1 8.40202 -1 20H1C1 9.50659 9.50659 1 20 1H110C120.493 1 129 9.50659 129 20H131ZM0 39H130H0ZM131 39V20C131 8.40202 121.598 -1 110 -1V1C120.493 1 129 9.50659 129 20V39H131ZM20 -1C8.40202 -1 -1 8.40202 -1 20V39H1V20C1 9.50659 9.50659 1 20 1V-1Z" fill="black" fill-opacity="0.2" mask="url(#path-1-inside-1_0_1)"/>
<path d="M26.0316 28L65.4705 9.93081L103.031 27.865" stroke="#7E7E7E"/>
</svg>
