<svg xmlns="http://www.w3.org/2000/svg" width="24" height="24" viewBox="0 0 24 24">
  <g id="captiverakes_wg_icon" transform="translate(-271.019 -332.019)">
    <g id="Group_21097" data-name="Group 21097" transform="translate(273.061 336.715)">
      <path id="Path_16963" data-name="Path 16963" d="M9.509,18.576h1.241a2.015,2.015,0,0,0,3.28,1.556,2.014,2.014,0,0,0,3.279-1.556h2.7a2.015,2.015,0,0,0,3.281,1.555,2.013,2.013,0,0,0,3.278-1.555h1.358a.753.753,0,0,0,.751-.751V6.751A.753.753,0,0,0,27.924,6H9.509a.753.753,0,0,0-.751.751V17.825A.753.753,0,0,0,9.509,18.576Zm16.32-1.307h0a1.84,1.84,0,0,0-.195-.167,1.809,1.809,0,0,0-2.2.029,1.85,1.85,0,0,0-.147.128,1.835,1.835,0,0,0-.147-.128,1.814,1.814,0,0,0-2.185-.038,1.851,1.851,0,0,0-.154.125l-.057.054H16.63l-.055,0a1.843,1.843,0,0,0-.183-.159,1.814,1.814,0,0,0-2.215.015,1.836,1.836,0,0,0-.147.128,1.814,1.814,0,0,0-2.328-.168q-.073.053-.141.113-.038.033-.073.068a1.815,1.815,0,0,1,2.542-.013,1.815,1.815,0,0,1,2.545.016l.055,0h4.116a1.815,1.815,0,0,1,2.543-.012,1.811,1.811,0,0,1,2.539.011Zm1.344-.195H25.907A2,2,0,0,0,23.289,17a2.01,2.01,0,0,0-2.621.077H16.65A2.009,2.009,0,0,0,14.031,17a2.01,2.01,0,0,0-2.62.078H10.26V7.5H27.173Zm-4.442,1.491a.706.706,0,0,1-.707.707.707.707,0,0,0,.5-1.208.716.716,0,0,1,.063.072A.707.707,0,0,1,22.731,18.565Zm-9.468-.5a.707.707,0,0,1-.5,1.211.707.707,0,0,0,.559-1.14A.713.713,0,0,0,13.262,18.061Zm-2.318.5a1.812,1.812,0,0,0,.507,1.258,1.812,1.812,0,0,1-.508-1.247Zm9.765,1.258a1.812,1.812,0,0,1-.507-1.258v.011A1.812,1.812,0,0,0,20.709,19.823Zm-8.458-1.258a.513.513,0,1,1,.515.512A.516.516,0,0,1,12.252,18.565Zm2.529,0a.513.513,0,1,1,.515.512A.516.516,0,0,1,14.78,18.565Zm6.729,0a.513.513,0,1,1,.515.512A.516.516,0,0,1,21.509,18.565Zm2.531,0a.512.512,0,1,1,.512.512A.513.513,0,0,1,24.041,18.565Z" transform="translate(-8.758 -6)" fill="#20104d" fill-rule="evenodd"/>
      <path id="Path_16966" data-name="Path 16966" d="M12.1,18.756v1.5l16.92.008c0-.776,0-.263,0-1.5Z" transform="translate(-10.601 -13.821)" fill="#20104d" fill-rule="evenodd"/>
    </g>
    <rect id="Rectangle_4967" data-name="Rectangle 4967" width="24" height="24" transform="translate(271.019 332.019)" fill="none"/>
  </g>
</svg>
