<svg xmlns="http://www.w3.org/2000/svg" width="24" height="24" viewBox="0 0 24 24">
  <g id="captive_rakes" transform="translate(-271.524 -332.524)">
    <g id="Group_21097" data-name="Group 21097" transform="translate(273.145 336.911)">
      <path id="Path_16963" data-name="Path 16963" d="M9.541,19.108h1.293a2.1,2.1,0,0,0,3.419,1.622,2.1,2.1,0,0,0,3.417-1.622h2.812a2.1,2.1,0,0,0,3.42,1.621,2.1,2.1,0,0,0,3.417-1.621h1.415a.784.784,0,0,0,.783-.783V6.783A.784.784,0,0,0,28.734,6H9.541a.785.785,0,0,0-.783.783V18.325A.785.785,0,0,0,9.541,19.108Zm17.01-1.363h0a1.918,1.918,0,0,0-.2-.174,1.886,1.886,0,0,0-2.288.03,1.929,1.929,0,0,0-.154.134,1.913,1.913,0,0,0-.153-.134,1.891,1.891,0,0,0-2.278-.04,1.929,1.929,0,0,0-.161.131l-.059.056h-4.29l-.057,0a1.92,1.92,0,0,0-.19-.166,1.891,1.891,0,0,0-2.308.016,1.913,1.913,0,0,0-.154.134,1.891,1.891,0,0,0-2.426-.175q-.076.055-.147.118-.039.035-.076.071a1.892,1.892,0,0,1,2.649-.014,1.892,1.892,0,0,1,2.652.016l.057,0h4.29a1.892,1.892,0,0,1,2.651-.012,1.887,1.887,0,0,1,2.646.011Zm1.4-.2h-1.32a2.089,2.089,0,0,0-2.728-.08,2.094,2.094,0,0,0-2.731.08H16.983a2.094,2.094,0,0,0-2.73-.081,2.094,2.094,0,0,0-2.73.081h-1.2V7.566H27.951ZM23.321,19.1a.736.736,0,0,1-.736.736.737.737,0,0,0,.519-1.259.746.746,0,0,1,.065.075A.737.737,0,0,1,23.321,19.1Zm-9.868-.526a.737.737,0,0,1-.516,1.262.737.737,0,0,0,.582-1.188A.743.743,0,0,0,13.452,18.57Zm-2.415.526a1.888,1.888,0,0,0,.529,1.311,1.888,1.888,0,0,1-.529-1.3Zm10.178,1.311a1.888,1.888,0,0,1-.529-1.311v.011A1.888,1.888,0,0,0,21.214,20.407ZM12.4,19.1a.535.535,0,1,1,.536.533A.538.538,0,0,1,12.4,19.1Zm2.635,0a.535.535,0,1,1,.536.533A.538.538,0,0,1,15.035,19.1Zm7.013,0a.535.535,0,1,1,.536.533A.538.538,0,0,1,22.048,19.1Zm2.638,0a.533.533,0,1,1,.533.533A.535.535,0,0,1,24.686,19.1Z" transform="translate(-8.758 -6)" fill="#2e2d32" fill-rule="evenodd"/>
      <path id="Path_16966" data-name="Path 16966" d="M12.1,18.756V20.32l17.635.009c0-.809,0-.274,0-1.566Z" transform="translate(-10.538 -13.613)" fill="#3a32ff" fill-rule="evenodd" opacity="0"/>
    </g>
    <rect id="Rectangle_4967" data-name="Rectangle 4967" width="24" height="24" transform="translate(271.524 332.524)" fill="none"/>
    <text id="cr" transform="translate(277.524 346.524)" fill="#334ffc" font-size="8" font-family="Inter-SemiBold, Inter" font-weight="600" letter-spacing="0.008em"><tspan x="0" y="0">CR</tspan></text>
  </g>
</svg>
