<svg id="Component_39_1" data-name="Component 39 – 1" xmlns="http://www.w3.org/2000/svg" width="184" height="48" viewBox="0 0 184 48">
  <rect id="Rectangle_4616" data-name="Rectangle 4616" width="184" height="48" fill="none"/>
  <circle id="Ellipse_143" data-name="Ellipse 143" cx="10" cy="10" r="10" transform="translate(12 14)" fill="#dfe3eb"/>
  <path id="gear-fill" d="M7.054.788a1.1,1.1,0,0,0-2.107,0l-.075.255A1.1,1.1,0,0,1,3.293,1.7l-.233-.127a1.1,1.1,0,0,0-1.49,1.49l.127.233a1.1,1.1,0,0,1-.654,1.579l-.255.075a1.1,1.1,0,0,0,0,2.107l.255.075A1.1,1.1,0,0,1,1.7,8.707l-.127.233a1.1,1.1,0,0,0,1.49,1.49l.233-.127a1.1,1.1,0,0,1,1.579.654l.075.255a1.1,1.1,0,0,0,2.107,0l.075-.255A1.1,1.1,0,0,1,8.707,10.3l.233.127a1.1,1.1,0,0,0,1.49-1.49L10.3,8.707a1.1,1.1,0,0,1,.654-1.579l.255-.075a1.1,1.1,0,0,0,0-2.107l-.255-.075A1.1,1.1,0,0,1,10.3,3.293l.127-.233a1.1,1.1,0,0,0-1.49-1.49L8.707,1.7a1.1,1.1,0,0,1-1.579-.654ZM6,8.2A2.2,2.2,0,1,1,8.2,6,2.2,2.2,0,0,1,6,8.2Z" transform="translate(16 18)" fill="#707070"/>
  <text id="Settings" transform="translate(44 30)" fill="#42454e" font-size="14" font-family="Inter-SemiBold, Inter" font-weight="600"><tspan x="0" y="0">Settings</tspan></text>
</svg>
