<svg xmlns="http://www.w3.org/2000/svg" xmlns:xlink="http://www.w3.org/1999/xlink" fill="none" version="1.1" width="30" height="30" viewBox="0 0 30 30"><defs><clipPath id="master_svg0_1_150"><rect x="0" y="0" width="30" height="30" rx="0"/></clipPath></defs><g clip-path="url(#master_svg0_1_150)"><g transform="matrix(1,0,0,-1,0,61.2890625)"><g><path d="M15,30.64453125Q19.1016,30.70312505,22.5,32.63672125Q25.8984,34.62891125,28.0078,38.14453125Q30,41.71873125,30,45.64453125Q30,49.570331249999995,28.0078,53.14453125Q25.8984,56.66013125,22.5,58.65233125Q19.1016,60.58593125,15,60.64453125Q10.8984,60.58593125,7.5,58.65233125Q4.10156,56.66013125,1.99219,53.14453125Q0,49.570331249999995,0,45.64453125Q0,41.71873125,1.99219,38.14453125Q4.10156,34.62891125,7.5,32.63672125Q10.8984,30.70312505,15,30.64453125ZM21.6211,48.39843125L14.1211,40.89843125L21.6211,48.39843125L14.1211,40.89843125Q13.125,40.07812125,12.1289,40.89843125L8.37891,44.64843125Q7.55859,45.64453125,8.37891,46.64063125Q9.375,47.46093125,10.3711,46.64063125L13.125,43.88673125L19.6289,50.39063125Q20.625,51.21093125,21.6211,50.39063125Q22.4414,49.39453125,21.6211,48.39843125Z" fill="#000000" fill-opacity="1" style="mix-blend-mode:passthrough"/></g></g></g></svg>