<svg xmlns="http://www.w3.org/2000/svg" width="20" height="20" viewBox="0 0 20 20">
  <g id="current_location_icon" transform="translate(1922 -12166)">
    <rect id="Rectangle_5540" data-name="Rectangle 5540" width="20" height="20" transform="translate(-1922 12166)" fill="none"/>
    <path id="Path_20063" data-name="Path 20063" d="M23.467,15.467H21.842a5.875,5.875,0,0,0-5.309-5.309V8.533a.533.533,0,1,0-1.067,0v1.625a5.875,5.875,0,0,0-5.309,5.309H8.533a.533.533,0,1,0,0,1.067h1.625a5.875,5.875,0,0,0,5.309,5.309v1.625a.533.533,0,1,0,1.067,0V21.842a5.875,5.875,0,0,0,5.309-5.309h1.625a.533.533,0,1,0,0-1.067ZM16,20.8A4.8,4.8,0,1,1,20.8,16,4.8,4.8,0,0,1,16,20.8Zm0-7.467A2.667,2.667,0,1,0,18.667,16,2.667,2.667,0,0,0,16,13.333ZM16,17.6A1.6,1.6,0,1,1,17.6,16,1.6,1.6,0,0,1,16,17.6Z" transform="translate(-1928 12160)"/>
  </g>
</svg>
