<svg xmlns="http://www.w3.org/2000/svg" width="20" height="20" viewBox="0 0 20 20">
  <g id="delivery_location_icon" transform="translate(1923 -12183)">
    <rect id="Rectangle_5540" data-name="Rectangle 5540" width="20" height="20" transform="translate(-1923 12183)" fill="none"/>
    <path id="Path_20062" data-name="Path 20062" d="M46.286,19.429a2.857,2.857,0,1,0,2.857,2.857A2.857,2.857,0,0,0,46.286,19.429Zm0,4.571A1.714,1.714,0,1,1,48,22.286,1.714,1.714,0,0,1,46.286,24Zm0-8A6.293,6.293,0,0,0,40,22.286a10.724,10.724,0,0,0,3,6.875A18.157,18.157,0,0,0,45.961,31.9a.571.571,0,0,0,.656,0,18.157,18.157,0,0,0,2.955-2.736,10.739,10.739,0,0,0,3-6.875A6.293,6.293,0,0,0,46.286,16Zm0,14.714c-1.181-.929-5.143-4.339-5.143-8.429a5.143,5.143,0,1,1,10.286,0C51.429,26.374,47.467,29.786,46.286,30.714Z" transform="translate(-1959.3 12169)"/>
  </g>
</svg>
