<?xml version="1.0" encoding="UTF-8"?>
<svg width="24" height="24" viewBox="0 0 24 24" fill="none" xmlns="http://www.w3.org/2000/svg">
    <path d="M7 19H17M7 19C7 20.1046 6.10457 21 5 21C3.89543 21 3 20.1046 3 19M7 19C7 17.8954 6.10457 17 5 17C3.89543 17 3 17.8954 3 19M17 19C17 20.1046 17.8954 21 19 21C20.1046 21 21 20.1046 21 19M17 19C17 17.8954 17.8954 17 19 17C20.1046 17 21 17.8954 21 19M21 14V6C21 4.89543 20.1046 4 19 4H12M3 14V6C3 4.89543 3.89543 4 5 4H7M7 4L9 2M7 4L9 6" stroke="black" stroke-width="2" stroke-linecap="round" stroke-linejoin="round"/>
</svg>
