<svg xmlns="http://www.w3.org/2000/svg" xmlns:xlink="http://www.w3.org/1999/xlink" width="25" height="25" viewBox="0 0 25 25">
  <defs>
    <clipPath id="clip-Doc">
      <rect width="25" height="25"/>
    </clipPath>
  </defs>
  <g id="Doc" clip-path="url(#clip-Doc)">
    <g id="Group_3661" data-name="Group 3661" transform="translate(6913.2 3255)">
      <g id="Group_3654" data-name="Group 3654" transform="translate(-7105.814 -3563.432)">
        <path id="Path_1418" data-name="Path 1418" d="M215.891,323.587c-.22.178-.44.045-.661,0,0-4.066.007-8.132-.012-12.2,0-.482.126-.562.486-.56q4.872.024,9.743,0a.744.744,0,0,1,.63.317q2.379,2.9,4.776,5.776a1.087,1.087,0,0,1,.258.767c-.011,1.965-.006,3.93-.007,5.895l-.661,0c0-1.672-.018-3.345.007-5.016.007-.458-.114-.54-.46-.535-1.446.023-2.893-.015-4.338.025-.447.012-.521-.16-.514-.651.025-1.73,0-3.461.017-5.191,0-.431-.058-.589-.459-.586q-4.17.037-8.34,0c-.382,0-.474.121-.472.576C215.9,316,215.892,319.8,215.891,323.587Z" transform="translate(-18.019)" fill="#050505"/>
        <path id="Path_1419" data-name="Path 1419" d="M215.258,488.965l.67.005c0,1.168.009,2.335-.005,3.5,0,.327.028.477.354.476q6.923-.021,13.847,0c.326,0,.36-.148.356-.477-.014-1.167-.006-2.335-.007-3.5l.67,0c0,1.441-.011,2.881,0,4.322,0,.349-.062.467-.37.466q-7.577-.018-15.154,0c-.313,0-.37-.125-.366-.468C215.27,491.846,215.259,490.405,215.258,488.965Z" transform="translate(-18.053 -161.323)" fill="#050505"/>
        <path id="Path_1420" data-name="Path 1420" d="M222.121,329.647c0-3.792.009-7.583-.006-11.375,0-.455.088-.579.463-.576q4.09.031,8.18,0c.393,0,.455.154.45.585-.019,1.73.007,3.461-.017,5.191-.007.491.066.663.5.651,1.418-.041,2.837,0,4.255-.025.34-.006.458.076.451.535-.024,1.672-.008,3.344-.006,5.017-.156.015-.313.043-.469.043q-6.692,0-13.384,0A3.929,3.929,0,0,1,222.121,329.647Z" transform="translate(-24.109 -6.06)" fill="#fcfdfd"/>
        <path id="Path_1421" data-name="Path 1421" d="M236.419,488.867c0,1.168-.008,2.335.006,3.5,0,.329-.03.478-.349.477q-6.79-.021-13.581,0c-.32,0-.351-.149-.347-.476.014-1.167.005-2.335.005-3.5,1.59-.007,3.18-.02,4.771-.019Q231.671,488.851,236.419,488.867Z" transform="translate(-24.139 -161.22)" fill="#fcfdfd"/>
        <path id="Path_1422" data-name="Path 1422" d="M240.264,436.23c0-.661.014-1.322-.007-1.982-.01-.3.109-.418.394-.436a8.191,8.191,0,0,1,1.919.016,2.121,2.121,0,0,1,1.945,2.178,2.3,2.3,0,0,1-1.7,2.469,5.885,5.885,0,0,1-2.2.138c-.272-.023-.362-.131-.356-.4C240.274,437.552,240.264,436.891,240.264,436.23Zm1.1-.024h0c0,.428.009.856,0,1.284-.006.226.083.291.3.31a1.5,1.5,0,0,0,1.7-1.565,1.432,1.432,0,0,0-1.528-1.644c-.4-.007-.508.137-.48.508S241.363,435.836,241.363,436.206Z" transform="translate(-41.028 -111.343)" fill="#fcfdfd"/>
        <path id="Path_1423" data-name="Path 1423" d="M285.524,435.981a2.277,2.277,0,0,1-2.388,2.492,2.238,2.238,0,0,1-2.206-2.478,2.291,2.291,0,0,1,2.369-2.46A2.205,2.205,0,0,1,285.524,435.981Zm-1.141.087c.029-.983-.429-1.664-1.131-1.681s-1.179.633-1.174,1.634c.005.97.461,1.6,1.156,1.6C283.9,437.619,284.356,437.007,284.383,436.068Z" transform="translate(-77.78 -111.144)" fill="#fcfdfd"/>
        <path id="Path_1424" data-name="Path 1424" d="M327.339,438.444c-1.7,0-2.66-.859-2.706-2.287a2.4,2.4,0,0,1,2.412-2.639,2.524,2.524,0,0,1,.754.038c.223.058.648-.1.555.431-.074.425-.2.579-.677.455a1.421,1.421,0,0,0-1.616.524,1.724,1.724,0,0,0-.119,1.827c.3.626.934.873,1.864.7.283-.053.436-.064.471.268.029.273.139.557-.3.594C327.71,438.379,327.442,438.43,327.339,438.444Z" transform="translate(-117.142 -111.119)" fill="#fcfdfd"/>
        <path id="Path_1425" data-name="Path 1425" d="M249.651,442.452c0-.369.022-.741-.006-1.108s.084-.515.48-.508a1.432,1.432,0,0,1,1.528,1.644,1.5,1.5,0,0,1-1.7,1.565c-.22-.019-.309-.084-.3-.31.012-.428,0-.856,0-1.284Z" transform="translate(-49.39 -117.53)" fill="#070699"/>
        <path id="Path_1426" data-name="Path 1426" d="M293.064,442.5c-.027.94-.481,1.552-1.149,1.552-.695,0-1.15-.63-1.156-1.6-.005-1,.461-1.651,1.174-1.634S293.092,441.518,293.064,442.5Z" transform="translate(-86.455 -117.518)" fill="#070699"/>
        <path id="Path_1417" data-name="Path 1417" d="M213.418,419.962a9.588,9.588,0,0,0,1.7.035c.286,0,.366.1.364.431q-.016,3.578,0,7.155c0,.39-.125.441-.408.432-.55-.017-1.1,0-1.652.01l-.7,0q-5.043-.01-10.086-.018c-1.689,0-3.378.012-5.067.019l-.7-.005c-.551-.005-1.1-.027-1.652-.008-.288.01-.409-.051-.406-.436q.024-3.578,0-7.156c0-.329.079-.435.366-.429.565.013,1.131-.02,1.7-.035.23.043.459.175.688,0a4.423,4.423,0,0,0,.447.044q7.108,0,14.215,0c.166,0,.332-.028.5-.043Zm-14.023,4.078c0,.661.009,1.322,0,1.983-.005.268.072.376.307.4a4.384,4.384,0,0,0,1.891-.138,2.3,2.3,0,0,0,1.466-2.469,2.034,2.034,0,0,0-1.674-2.178,6.083,6.083,0,0,0-1.652-.016c-.245.018-.348.131-.339.436C199.406,422.718,199.394,423.379,199.394,424.04Zm8.042-.048c.008-1.467-.745-2.427-1.916-2.446-1.2-.019-2.025.976-2.039,2.46-.014,1.455.755,2.458,1.9,2.478C206.62,426.507,207.429,425.526,207.436,423.992Zm2.773,2.487c.089-.015.319-.065.551-.089.377-.038.282-.322.257-.594-.03-.332-.162-.32-.406-.268a1.25,1.25,0,0,1-1.6-.7,1.96,1.96,0,0,1,.1-1.827,1.134,1.134,0,0,1,1.391-.524c.41.124.519-.03.583-.455.08-.534-.286-.372-.478-.431a1.877,1.877,0,0,0-.649-.038,2.28,2.28,0,0,0-2.077,2.639A2.136,2.136,0,0,0,210.209,426.479Z" transform="translate(0 -99.289)" fill="#070699"/>
      </g>
    </g>
  </g>
</svg>
