<svg xmlns="http://www.w3.org/2000/svg" width="36" height="36" viewBox="0 0 36 36">
  <g id="empty_rakes_icon" transform="translate(-350 -129)">
    <circle id="Ellipse_273" data-name="Ellipse 273" cx="18" cy="18" r="18" transform="translate(350 129)" fill="#f8f8f8"/>
    <g id="Group_21765" data-name="Group 21765" transform="translate(4195.117 -681.883)">
      <g id="captive_rakes" transform="translate(-3837 819)">
        <g id="Group_21097" data-name="Group 21097" transform="translate(1.335 3.613)">
          <path id="Path_16963" data-name="Path 16963" d="M9.4,16.795h1.065a1.73,1.73,0,0,0,2.816,1.335A1.728,1.728,0,0,0,16.1,16.795h2.316A1.73,1.73,0,0,0,21.23,18.13a1.728,1.728,0,0,0,2.814-1.335h1.165a.646.646,0,0,0,.645-.645V6.645A.646.646,0,0,0,25.209,6H9.4a.646.646,0,0,0-.645.645V16.15A.646.646,0,0,0,9.4,16.795Zm14.008-1.122h0a1.58,1.58,0,0,0-.167-.143,1.553,1.553,0,0,0-1.884.025,1.589,1.589,0,0,0-.126.11,1.575,1.575,0,0,0-.126-.11,1.557,1.557,0,0,0-1.876-.033,1.589,1.589,0,0,0-.132.107l-.049.046H15.515l-.047,0a1.582,1.582,0,0,0-.157-.136,1.557,1.557,0,0,0-1.9.013,1.576,1.576,0,0,0-.127.11,1.557,1.557,0,0,0-2-.145q-.063.046-.121.1-.032.029-.063.059a1.558,1.558,0,0,1,2.182-.011,1.558,1.558,0,0,1,2.184.014l.047,0h3.533a1.558,1.558,0,0,1,2.183-.01,1.554,1.554,0,0,1,2.179.009Zm1.154-.167H23.477a1.721,1.721,0,0,0-2.246-.066,1.725,1.725,0,0,0-2.25.066H15.532a1.725,1.725,0,0,0-2.248-.067,1.725,1.725,0,0,0-2.249.067h-.988V7.289H24.564Zm-3.813,1.28a.606.606,0,0,1-.606.606.607.607,0,0,0,.428-1.037.614.614,0,0,1,.054.061A.607.607,0,0,1,20.751,16.785Zm-8.127-.433a.607.607,0,0,1-.425,1.039.607.607,0,0,0,.479-.978A.612.612,0,0,0,12.624,16.352Zm-1.989.433a1.555,1.555,0,0,0,.435,1.079,1.555,1.555,0,0,1-.436-1.07Zm8.382,1.079a1.555,1.555,0,0,1-.435-1.079v.009A1.555,1.555,0,0,0,19.016,17.865Zm-7.26-1.08a.441.441,0,1,1,.442.439A.443.443,0,0,1,11.757,16.785Zm2.17,0a.441.441,0,1,1,.442.439A.443.443,0,0,1,13.927,16.785Zm5.776,0a.441.441,0,1,1,.442.439A.443.443,0,0,1,19.7,16.785Zm2.173,0a.439.439,0,1,1,.439.439A.441.441,0,0,1,21.876,16.785Z" transform="translate(-8.758 -6)" fill="#131722" fill-rule="evenodd"/>
          <path id="Path_16966" data-name="Path 16966" d="M12.1,18.756v3.4l17.589.019c0-1.759,0-.6,0-3.406Z" transform="translate(-12.349 -19.114)" fill="#f8f8f8" fill-rule="evenodd"/>
          <path id="Path_20036" data-name="Path 20036" d="M12.1,18.756v1.293l17.1.007c0-.668,0-.226,0-1.294Z" transform="translate(-12.102 -12.486)" fill="#e6667b" fill-rule="evenodd"/>
        </g>
        <rect id="Rectangle_4967" data-name="Rectangle 4967" width="20" height="20" transform="translate(-0.117 -0.117)" fill="none"/>
      </g>
    </g>
  </g>
</svg>
