<svg xmlns="http://www.w3.org/2000/svg" width="36" height="36" viewBox="0 0 36 36">
  <g id="filter_icon" transform="translate(-1380 -206)">
    <g id="Rectangle_4278" data-name="Rectangle 4278" transform="translate(1380 206)" fill="#fff" stroke="#e9e9eb" stroke-width="1">
      <rect width="36" height="36" rx="4" stroke="none"/>
      <rect x="0.5" y="0.5" width="35" height="35" rx="3.5" fill="none"/>
    </g>
    <path id="Path_17079" data-name="Path 17079" d="M47.9,44.714A1.185,1.185,0,0,0,46.8,44H29.2a1.2,1.2,0,0,0-.888,2.007l0,0L35.2,53.357V61.2a1.2,1.2,0,0,0,1.866,1l3.2-2.133a1.2,1.2,0,0,0,.535-1V53.357l6.885-7.351a1.185,1.185,0,0,0,.213-1.292Zm-.8.75-6.989,7.461A.4.4,0,0,0,40,53.2v5.864a.4.4,0,0,1-.178.333l-3.2,2.133A.4.4,0,0,1,36,61.2v-8a.4.4,0,0,0-.108-.274l-6.986-7.458A.4.4,0,0,1,29.2,44.8H46.8a.4.4,0,0,1,.3.665Z" transform="translate(1359.999 170.801)" fill="#7c7e8c" stroke="#707070" stroke-width="0.5"/>
  </g>
</svg>
