<svg id="get_path" xmlns="http://www.w3.org/2000/svg" width="24" height="24" viewBox="0 0 24 24">
  <path id="Path_17000" data-name="Path 17000" d="M0,0H24V24H0Z" fill="none"/>
  <path id="Path_17001" data-name="Path 17001" d="M6,19,4,19a2,2,0,1,0,2-2,2,2,0,0,0-2,2" fill="none" stroke="#2c3e50" stroke-linecap="round" stroke-linejoin="round" stroke-width="1.5"/>
  <path id="Path_17002" data-name="Path 17002" d="M18,5,16,5a2,2,0,1,0,2-2,2,2,0,0,0-2,2" fill="none" stroke="#2c3e50" stroke-linecap="round" stroke-linejoin="round" stroke-width="1.5"/>
  <path id="Path_17003" data-name="Path 17003" d="M12,19h4.5a3.5,3.5,0,1,0,0-7h-8a3.5,3.5,0,1,1,0-7H12" fill="none" stroke="#2c3e50" stroke-linecap="round" stroke-linejoin="round" stroke-width="1.5"/>
</svg>
