<svg xmlns="http://www.w3.org/2000/svg" width="36" height="36" viewBox="0 0 36 36">
  <g id="gps_faullty_icon" transform="translate(-543.315 -177.315)">
    <path id="Path_16817" data-name="Path 16817" d="M17.267,4.053V7.107H6.58V17.794H31.007V30.007H29.48v1.527a1.527,1.527,0,0,1-1.527,1.527H26.427A1.527,1.527,0,0,1,24.9,31.534V30.007H9.633v1.527A1.527,1.527,0,0,1,8.107,33.06H6.58a1.527,1.527,0,0,1-1.527-1.527V30.007H3.527V17.794H2V11.687H3.527V7.107A3.053,3.053,0,0,1,6.58,4.053ZM27.954,20.847H6.58v6.107H27.954Zm-13.74,1.527v3.053H8.107V22.374Zm12.213,0v3.053H20.32V22.374ZM27.19,1a6.87,6.87,0,1,1-6.87,6.87A6.87,6.87,0,0,1,27.19,1Zm0,7.888a3.041,3.041,0,0,0-1.967.718l-.192.176,2.159,2.159,2.158-2.161A3.044,3.044,0,0,0,27.19,8.888Zm0-4.071a7.1,7.1,0,0,0-4.775,1.837l-.264.251,1.441,1.438a5.089,5.089,0,0,1,6.959-.223l.238.223L32.228,6.9A7.1,7.1,0,0,0,27.19,4.817Z" transform="translate(543.285 178.285)" fill="#e6667b"/>
    <rect id="Rectangle_4801" data-name="Rectangle 4801" width="36" height="36" transform="translate(543.315 177.315)" fill="none"/>
  </g>
</svg>
