<svg xmlns="http://www.w3.org/2000/svg" width="45.125" height="16.25" viewBox="0 0 45.125 16.25">
  <g id="gps_icon" transform="translate(-1122.875 -533.875)">
    <text id="gps" transform="translate(1155 546)" fill="#334ffc" font-size="12" font-family="Inter-Medium, Inter" font-weight="500" letter-spacing="0.002em"><tspan x="-12" y="0">GPS</tspan></text>
    <path id="Path_17108" data-name="Path 17108" d="M23.467,15.467H21.842a5.875,5.875,0,0,0-5.309-5.309V8.533a.533.533,0,0,0-1.067,0v1.625a5.875,5.875,0,0,0-5.309,5.309H8.533a.533.533,0,0,0,0,1.067h1.625a5.875,5.875,0,0,0,5.309,5.309v1.625a.533.533,0,1,0,1.067,0V21.842a5.875,5.875,0,0,0,5.309-5.309h1.625a.533.533,0,1,0,0-1.067ZM16,20.8A4.8,4.8,0,1,1,20.8,16,4.8,4.8,0,0,1,16,20.8Zm0-7.467A2.667,2.667,0,1,0,18.667,16,2.667,2.667,0,0,0,16,13.333ZM16,17.6A1.6,1.6,0,1,1,17.6,16,1.6,1.6,0,0,1,16,17.6Z" transform="translate(1115 526)" fill="#334ffc" stroke="#334ffc" stroke-width="0.25"/>
  </g>
</svg>
