<svg id="Group_19761" data-name="Group 19761" xmlns="http://www.w3.org/2000/svg" width="32" height="32" viewBox="0 0 32 32">
  <g id="upload" transform="translate(1.3 5.7)">
    <path id="Path_27300" data-name="Path 27300" d="M16.157,14.165l-2.949-2.949a.737.737,0,0,0-1.043,0L9.216,14.165a.738.738,0,0,0,1.043,1.043l1.691-1.691v8.542a.738.738,0,1,0,1.475,0V13.517l1.691,1.691a.738.738,0,1,0,1.043-1.043Z" transform="translate(1.323 -2.153)" fill="#5481ff"/>
    <path id="Path_27301" data-name="Path 27301" d="M24.857,10.9a9.579,9.579,0,0,0-18.4,3.02,5.144,5.144,0,0,0-4.432,5.613A5.332,5.332,0,0,0,7.411,24.17H13.06a.737.737,0,1,0,0-1.474H7.332a3.817,3.817,0,0,1-3.669-2.521,3.677,3.677,0,0,1,2.993-4.8,1.623,1.623,0,0,0,1.279-1.443A8.16,8.16,0,0,1,19.861,7.4a8.024,8.024,0,0,1,3.65,4.1,1.475,1.475,0,0,0,1.226.868,5.425,5.425,0,0,1,4.778,2.865A5.2,5.2,0,0,1,24.856,22.7h-5.9a.737.737,0,0,0,0,1.474h5.613a6.828,6.828,0,0,0,6.89-5.984,6.637,6.637,0,0,0-6.6-7.29Z" transform="translate(-1.999 -5.001)" fill="#5481ff"/>
  </g>
  <rect id="Rectangle_4282" data-name="Rectangle 4282" width="32" height="32" fill="none"/>
</svg>
