<svg xmlns="http://www.w3.org/2000/svg" width="24" height="24" viewBox="0 0 24 24">
  <g id="help_center_icon" transform="translate(-848 -144)">
    <path id="Path_17025" data-name="Path 17025" d="M38.154,40H25.846A1.846,1.846,0,0,0,24,41.846v8.615a1.846,1.846,0,0,0,1.846,1.846H38.154A1.846,1.846,0,0,0,40,50.462V41.846A1.846,1.846,0,0,0,38.154,40Zm.615,10.462a.615.615,0,0,1-.615.615H25.846a.615.615,0,0,1-.615-.615V41.846a.615.615,0,0,1,.615-.615H38.154a.615.615,0,0,1,.615.615ZM34.8,45.642,31.111,43.18a.615.615,0,0,0-.957.512v4.923a.615.615,0,0,0,.957.512L34.8,46.666a.615.615,0,0,0,0-1.025Zm-3.418,1.824V44.846l1.968,1.308Z" transform="translate(828 109.85)"/>
    <rect id="Rectangle_5078" data-name="Rectangle 5078" width="24" height="24" transform="translate(848 144)" fill="none"/>
  </g>
</svg>
