<svg xmlns="http://www.w3.org/2000/svg" xmlns:xlink="http://www.w3.org/1999/xlink" width="26" height="25" viewBox="0 0 26 25">
  <defs>
    <clipPath id="clip-Help_Icon">
      <rect width="26" height="25"/>
    </clipPath>
  </defs>
  <g id="Help_Icon" data-name="Help Icon" clip-path="url(#clip-Help_Icon)">
    <g id="Group_3651" data-name="Group 3651" transform="translate(-183.636 -123.167)">
      <path id="Path_1385" data-name="Path 1385" d="M408.35,277.415a12.267,12.267,0,1,1,12.412-12.178A12.324,12.324,0,0,1,408.35,277.415Zm.01-22.973a10.71,10.71,0,1,0,10.826,10.625A10.834,10.834,0,0,0,408.361,254.443Z" transform="translate(-211.619 -129.415)" fill="#fcfcfc"/>
      <path id="Path_1387" data-name="Path 1387" d="M476.552,335.557c.221-.206.336-.411.478-.431,1.438-.209,2.88-.388,4.321-.571a1.042,1.042,0,0,1,.27.057c-.129.43-.246.836-.373,1.239-.7,2.222-1.413,4.441-2.091,6.67-.1.336-.434.8.035,1.062.442.244.683-.248.95-.5s.44-.559.694-.8a.681.681,0,0,1,.537-.106,5.433,5.433,0,0,1-2.4,2.615,4.233,4.233,0,0,1-1.832.346,1.4,1.4,0,0,1-1.251-1.981c.488-1.682,1.039-3.345,1.559-5.018.149-.481.308-.961.415-1.452.171-.791-.049-1.042-.877-1.077C476.9,335.6,476.812,335.586,476.552,335.557Z" transform="translate(-282.513 -201.925)" fill="#fcfcfc"/>
      <path id="Path_1388" data-name="Path 1388" d="M507.406,288.855a1.608,1.608,0,0,1,1.725,1.649,1.64,1.64,0,0,1-1.813,1.567,1.616,1.616,0,1,1,.088-3.216Z" transform="translate(-308.962 -161.353)" fill="#fcfcfc"/>
    </g>
  </g>
</svg>
