<svg xmlns="http://www.w3.org/2000/svg" width="32" height="32" viewBox="0 0 32 32">
  <g id="inactive_icon" transform="translate(-28 -280)">
    <g id="Group_21082" data-name="Group 21082" transform="translate(-8910.014 -6810.014)">
      <path id="train_FILL0_wght400_GRAD0_opsz24" d="M160-868.142v-8.344a2.722,2.722,0,0,1,.6-1.856A3.8,3.8,0,0,1,162.2-879.4a9.034,9.034,0,0,1,2.251-.483q1.263-.121,2.58-.121,1.449,0,2.734.121a8.6,8.6,0,0,1,2.24.483,3.412,3.412,0,0,1,1.5,1.054,2.9,2.9,0,0,1,.549,1.856v8.344a2.97,2.97,0,0,1-.889,2.185,2.97,2.97,0,0,1-2.185.889l1.318,1.318v.439H170.54l-1.757-1.757H165.27l-1.757,1.757h-1.757v-.439l1.318-1.318a2.97,2.97,0,0,1-2.185-.889A2.97,2.97,0,0,1,160-868.142Zm7.027-10.1a15.128,15.128,0,0,0-3.4.274,3.982,3.982,0,0,0-1.471.6h9.838a2.81,2.81,0,0,0-1.416-.626A17.486,17.486,0,0,0,167.027-878.243Zm-5.27,5.27h4.392v-2.635h-4.392Zm9.223,1.757h0Zm-3.074-1.757H172.3v-2.635h-4.392Zm-3.953,5.27a1.28,1.28,0,0,0,.944-.373,1.28,1.28,0,0,0,.373-.944,1.28,1.28,0,0,0-.373-.944,1.28,1.28,0,0,0-.944-.373,1.28,1.28,0,0,0-.944.373,1.28,1.28,0,0,0-.373.944,1.28,1.28,0,0,0,.373.944A1.28,1.28,0,0,0,163.953-867.7Zm6.148,0a1.28,1.28,0,0,0,.944-.373,1.28,1.28,0,0,0,.373-.944,1.28,1.28,0,0,0-.373-.944,1.28,1.28,0,0,0-.944-.373,1.28,1.28,0,0,0-.944.373,1.28,1.28,0,0,0-.373.944,1.28,1.28,0,0,0,.373.944A1.28,1.28,0,0,0,170.1-867.7Zm-7.027.878h7.905a1.28,1.28,0,0,0,.944-.373,1.28,1.28,0,0,0,.373-.944v-3.074h-10.54v3.074a1.28,1.28,0,0,0,.373.944A1.28,1.28,0,0,0,163.074-866.825Zm3.953-10.54h0Z" transform="translate(8781.986 7981.313)" fill="#42454e" stroke="#fff" stroke-width="0.5"/>
      <rect id="Rectangle_4954" data-name="Rectangle 4954" width="32" height="32" transform="translate(8938.014 7090.014)" fill="none"/>
    </g>
    <g id="Group_21531" data-name="Group 21531" transform="translate(44 284)">
      <path id="Path_19943" data-name="Path 19943" d="M0,0H12V12H0Z" fill="none"/>
      <path id="Path_19944" data-name="Path 19944" d="M9.218,8.708A1.482,1.482,0,0,0,11.25,10.75m.714-1.268A1.482,1.482,0,0,0,10.482,8" transform="translate(-4.482 -3.984)" fill="none" stroke="#e6667b" stroke-linecap="round" stroke-linejoin="round" stroke-width="1"/>
      <path id="Path_19945" data-name="Path 19945" d="M10.615,10.106l-1.88,1.876a1.008,1.008,0,0,1-1.422,0L5.178,9.852a4.007,4.007,0,0,1-.239-5.416m1.1-.913A4.02,4.02,0,0,1,11.523,9" transform="translate(-2.024 -1.518)" fill="none" stroke="#e6667b" stroke-linecap="round" stroke-linejoin="round" stroke-width="1"/>
      <path id="Path_19946" data-name="Path 19946" d="M3,3l9.036,9.036" transform="translate(-1.518 -1.518)" fill="none" stroke="#e6667b" stroke-linecap="round" stroke-linejoin="round" stroke-width="1"/>
    </g>
  </g>
</svg>
