<svg xmlns="http://www.w3.org/2000/svg" width="24" height="24" viewBox="0 0 24 24">
  <g id="Inplant_details_wg_icon" transform="translate(-2441 -11728)">
    <path id="Path_20055" data-name="Path 20055" d="M27.318,51.951h-.666v-10.5l.805-.173a.666.666,0,1,0-.279-1.3l-18.651,4a.666.666,0,0,0,.14,1.317.679.679,0,0,0,.141-.015l.525-.112v6.789H8.666a.666.666,0,0,0,0,1.332H27.318a.666.666,0,1,0,0-1.332ZM10.664,44.873l14.655-3.137V51.951h-2V47.288a.666.666,0,0,0-.666-.666H13.329a.666.666,0,0,0-.666.666v4.663h-2Zm11.324,4.413H14V47.954h7.993ZM14,50.618h7.993v1.332H14Z" transform="translate(2435 11693.043)" fill="#20104d"/>
    <rect id="Rectangle_5486" data-name="Rectangle 5486" width="24" height="24" transform="translate(2441 11728)" fill="none"/>
  </g>
</svg>
