<svg xmlns="http://www.w3.org/2000/svg" width="20" height="20" viewBox="0 0 20 20">
  <g id="Invite_icon" transform="translate(-12 -14)">
    <circle id="Ellipse_146" data-name="Ellipse 146" cx="10" cy="10" r="10" transform="translate(12 14)" fill="#dfe3eb"/>
    <path id="Path_19971" data-name="Path 19971" d="M9.97,55.019a.382.382,0,0,1-.32.59H2.613a.382.382,0,0,1-.32-.59,4.571,4.571,0,0,1,2.252-1.8,2.862,2.862,0,1,1,3.172,0,4.571,4.571,0,0,1,2.252,1.8Zm4.193-.007a4.573,4.573,0,0,0-2.248-1.792,2.862,2.862,0,0,0-2.888-4.929.191.191,0,0,0-.063.286,3.617,3.617,0,0,1,.173,4.29.191.191,0,0,0,.051.264A5.358,5.358,0,0,1,10.612,54.6a1.141,1.141,0,0,1,.174.786.191.191,0,0,0,.188.221h2.876a.382.382,0,0,0,.369-.283A.392.392,0,0,0,14.164,55.012Z" transform="translate(13.802 -27.771)" fill="#707070"/>
  </g>
</svg>
