<svg xmlns="http://www.w3.org/2000/svg" width="24" height="24" viewBox="0 0 24 24">
  <g id="load_deactive_icon" transform="translate(-24 -290)">
    <g id="kg-measure-weight-icon" transform="translate(27.508 292)">
      <path id="Path_16662" data-name="Path 16662" d="M1.8,20H15.321c.874,0,1.989-1.125,1.782-1.974L14.834,8.7c-.491-2.021-1.178-3.128-3.421-3.128H9.687a2.9,2.9,0,1,0-2.3,0H5.864c-2.234,0-3.173,1.256-3.634,3.183L.016,18.024C-.185,18.873.926,20,1.8,20ZM6.064,11.66h.723v.929l.758-.929h.963l-.856.923.9,1.535h-.89l-.495-1.009-.376.41v.6H6.064V11.66ZM9.8,13.229v-.511h1.12v1.045a2.287,2.287,0,0,1-.568.314,1.843,1.843,0,0,1-.586.083,1.372,1.372,0,0,1-.68-.15.993.993,0,0,1-.407-.444,1.523,1.523,0,0,1-.145-.677,1.485,1.485,0,0,1,.158-.7,1.044,1.044,0,0,1,.464-.451A1.445,1.445,0,0,1,9.8,11.62a1.735,1.735,0,0,1,.581.073.742.742,0,0,1,.319.229,1.035,1.035,0,0,1,.19.394l-.7.132a.4.4,0,0,0-.146-.213.432.432,0,0,0-.264-.075.461.461,0,0,0-.379.174.865.865,0,0,0-.142.548.888.888,0,0,0,.143.57.49.49,0,0,0,.4.171.723.723,0,0,0,.231-.036,1.242,1.242,0,0,0,.252-.125v-.229H9.8ZM8.56,8.643a4.2,4.2,0,1,1-4.2,4.2,4.2,4.2,0,0,1,4.2-4.2ZM8.536,1.694A1.211,1.211,0,1,1,7.325,2.9,1.211,1.211,0,0,1,8.536,1.694Z" transform="translate(0)" fill="#ooo" fill-rule="evenodd"/>
    </g>
    <rect id="Rectangle_4571" data-name="Rectangle 4571" width="24" height="24" transform="translate(24 290)" fill="none"/>
  </g>
</svg>
