<svg xmlns="http://www.w3.org/2000/svg" width="119.321" height="32" viewBox="0 0 119.321 32">
  <g id="logo" transform="translate(-927.999 -58)">
    <path id="Path_4189" data-name="Path 4189" d="M234.11,25.975l.18-.166c1.143-1.223,2.28-2.446,3.428-3.665a.512.512,0,0,1,.294-.171h2.371a1.546,1.546,0,0,1-.118.175c-1.09,1.114-2.181,2.233-3.281,3.342a.308.308,0,0,0-.043.474c1.157,1.645,2.3,3.319,3.447,4.954l.161.247h-2.162a.4.4,0,0,1-.37-.194c-.83-1.2-1.669-2.371-2.5-3.589-.043-.062-.095-.123-.185-.242l-.526.588a3.4,3.4,0,0,1-.446.474.948.948,0,0,0-.341.853c.024.626,0,1.252,0,1.9,0,.19-.057.27-.256.265H232.19c-.19,0-.27-.057-.27-.256V18.711c0-.194.076-.247.256-.242h1.546c.232,0,.3.066.3.294v7.2Z" transform="translate(806.771 47.81)" fill="#131722"/>
    <path id="Path_4190" data-name="Path 4190" d="M193.951,33.722c-.232.247-.446.507-.7.73a3.333,3.333,0,0,1-4.969-.787,3.987,3.987,0,0,1-.436-1.9V26.108c0-.284,0-.308.318-.308h1.474c.223,0,.3.062.3.294v4.879a3.03,3.03,0,0,0,.247,1.294,1.787,1.787,0,0,0,1.821,1.034,2,2,0,0,0,2.01-2.157V26.17c0-.351,0-.365.379-.365h1.38c.327,0,.332,0,.332.332v8.657c0,.171-.062.242-.237.237h-1.645c-.171,0-.218-.066-.213-.223V33.76Z" transform="translate(829.605 44.003)" fill="#131722"/>
    <path id="Path_4191" data-name="Path 4191" d="M154.144,26.6v-4.8c0-.318,0-.337-.341-.337h-3.262c-.19,0-.266-.047-.261-.251V19.751c0-.175.038-.251.237-.251h9.421c.19,0,.251.062.247.247V21.2c0,.2-.066.261-.261.261H156.69c-.389,0-.412.024-.412.422v9.444c0,.408,0,.408-.4.408h-1.38c-.36,0-.36,0-.36-.375Z" transform="translate(849.091 47.275)" fill="#131722"/>
    <path id="Path_4192" data-name="Path 4192" d="M19.816,33.363a.94.94,0,0,1-.474.776.778.778,0,0,1-.891-.078,1.726,1.726,0,0,1-.194-.181L2.506,17.687a.924.924,0,0,1-.337-.747.816.816,0,0,1,.474-.737.783.783,0,0,1,.868.088c.09.078.175.166.261.249L19.2,32.426a2.5,2.5,0,0,1,.346.366A4.81,4.81,0,0,1,19.816,33.363Z" transform="translate(925.83 48.825)" fill="#eb2053"/>
    <path id="Path_4193" data-name="Path 4193" d="M209.85,30.515a5.1,5.1,0,0,1,1.968-4.191,4.931,4.931,0,0,1,6.3.474c.142.152.171.261,0,.417-.327.332-.645.678-.948,1.029-.119.128-.2.133-.332,0a3.067,3.067,0,0,0-1.645-.948,2.679,2.679,0,0,0-3.186,2.228,3.21,3.21,0,0,0,.631,2.712,2.7,2.7,0,0,0,3.4.635,5.215,5.215,0,0,0,.877-.645c.142-.119.228-.152.37,0,.294.3.593.6.906.877.185.166.137.27,0,.422a4.86,4.86,0,0,1-8.231-2.2A6.166,6.166,0,0,1,209.85,30.515Z" transform="translate(818.378 44.208)" fill="#131722"/>
    <path id="Path_4194" data-name="Path 4194" d="M82.143,27.769a3.257,3.257,0,0,1,3.015-1.726,3.172,3.172,0,0,1,2.9,1.9c.275-.322.512-.654.8-.948a3.537,3.537,0,0,1,5.215.4,3.973,3.973,0,0,1,.654,2.3c0,1.721,0,3.437,0,5.158,0,.3,0,.322-.327.322h-.213c-.218,0-.313-.119-.308-.332V29.58a2.935,2.935,0,0,0-.9-2.157,2.778,2.778,0,0,0-4.186.877,3.694,3.694,0,0,0-.384,1.7v4.85c0,.175,0,.337-.242.337-.474,0-.569-.038-.569-.337V32c0-.863,0-1.73-.038-2.589a2.56,2.56,0,0,0-1.5-2.371,2.788,2.788,0,0,0-3.679,1.574,3.759,3.759,0,0,0-.242,1.252C82.1,31.32,82.1,32.785,82.1,34.25v.474c0,.171,0,.384-.085.4a1.721,1.721,0,0,1-.607.028c-.043,0-.095-.095-.114-.156a.759.759,0,0,1,0-.232V26.631c0-.313.038-.36.27-.36.474,0,.54.038.545.356s0,.6,0,.906v.223Z" transform="translate(884.862 43.883)" fill="#131722"/>
    <path id="Path_4195" data-name="Path 4195" d="M174.986,27.512c.109-.18.223-.365.337-.54a3.11,3.11,0,0,1,2.475-1.512c.365-.033.384,0,.384.337v1.64c0,.161-.038.242-.228.247a2.921,2.921,0,0,0-2.973,2.845c-.057.749-.047,1.5-.057,2.257v1.83c0,.171-.052.242-.232.237h-1.664c-.156,0-.213-.062-.209-.209s0-.351,0-.522v-8.15c0-.341,0-.337.341-.337h1.5c.194,0,.266.057.261.256V27.5Z" transform="translate(837.36 44.184)" fill="#131722"/>
    <path id="Path_4196" data-name="Path 4196" d="M56.34,29.776l.564-.654a14.373,14.373,0,0,0,1.422,1,5.334,5.334,0,0,0,4.461.526,2.328,2.328,0,0,0,1.621-2.7,2.015,2.015,0,0,0-1.271-1.489,11.688,11.688,0,0,0-2.48-.721,9.871,9.871,0,0,1-2.243-.768,2.944,2.944,0,0,1-.517-4.86,4.267,4.267,0,0,1,2.532-.948,6.121,6.121,0,0,1,4.333,1.309l.19.161c-.142.175-.284.337-.4.512s-.2.152-.341.033a4.784,4.784,0,0,0-1.754-.977,4.679,4.679,0,0,0-3.233.047,2.209,2.209,0,0,0-1.5,2.143,1.944,1.944,0,0,0,1.038,1.749,9.359,9.359,0,0,0,2.631.849,10.089,10.089,0,0,1,2.371.787,3.014,3.014,0,0,1,.137,5.215,4.912,4.912,0,0,1-2.721.711,6.917,6.917,0,0,1-4.67-1.825A1.785,1.785,0,0,0,56.34,29.776Z" transform="translate(897.76 47.463)" fill="#131722"/>
    <path id="Path_4197" data-name="Path 4197" d="M12,56.028a.891.891,0,0,1-.664-.318L9.4,53.776l-6.86-6.86a.948.948,0,0,1-.327-1A.839.839,0,0,1,3.477,45.5a1.8,1.8,0,0,1,.251.218l8.795,8.776a.825.825,0,0,1,.261,1.043.8.8,0,0,1-.787.493Z" transform="translate(925.826 33.971)" fill="#eb2053"/>
    <path id="Path_4198" data-name="Path 4198" d="M27.458,11.308a.792.792,0,0,1-.5.787.773.773,0,0,1-.868-.128c-.152-.128-.289-.27-.427-.408L17.184,3.083a1.019,1.019,0,0,1-.384-.759.8.8,0,0,1,.474-.744.759.759,0,0,1,.849.066,2.039,2.039,0,0,1,.289.247l8.676,8.676a1.048,1.048,0,0,1,.37.74Z" transform="translate(918.135 56.52)" fill="#eb2053"/>
    <path id="Path_4199" data-name="Path 4199" d="M121.551,33.826l-.384.408a4.3,4.3,0,0,1-5.429.436,2.646,2.646,0,0,1,.185-4.267,4.68,4.68,0,0,1,2.28-.664,10.748,10.748,0,0,1,3.11.294c.266.062.289.047.289-.228a2.93,2.93,0,0,0-.474-1.8,2.565,2.565,0,0,0-1.9-.991,5.462,5.462,0,0,0-3.02.5c-.109.052-.337.095-.36.057a2.552,2.552,0,0,1-.209-.588c0-.038.095-.123.161-.152a6.32,6.32,0,0,1,4.3-.474,2.944,2.944,0,0,1,2.29,2.958v5.661c0,.19-.066.261-.251.242h-.119c-.389,0-.436-.052-.441-.436v-.948Zm-3.053.858a3.907,3.907,0,0,0,2.143-.8,2.167,2.167,0,0,0,.915-1.422c.066-.427.033-.868.071-1.3a.3.3,0,0,0-.28-.375A10.624,10.624,0,0,0,118,30.5a4.011,4.011,0,0,0-1.237.337,1.792,1.792,0,0,0-1.133,1.721,1.816,1.816,0,0,0,1.043,1.73A3.651,3.651,0,0,0,118.5,34.684Z" transform="translate(867.485 43.807)" fill="#131722"/>
    <path id="Path_4200" data-name="Path 4200" d="M14.223,14.494a2.641,2.641,0,0,1-.555-.318c-1.309-1.29-2.608-2.593-3.907-3.9a.839.839,0,0,1-.038-1.228.83.83,0,0,1,1.228.024c.616.6,1.223,1.218,1.835,1.83L14.863,13a.792.792,0,0,1,.19.948.815.815,0,0,1-.787.507Z" transform="translate(921.987 52.674)" fill="#eb2053"/>
    <path id="Path_4201" data-name="Path 4201" d="M138.338,28.723l.218-.351a4.215,4.215,0,0,1,2.513-2.01,7.724,7.724,0,0,1,.948-.142c.156,0,.232.047.228.218s0,.332,0,.5-.085.223-.237.237a3.679,3.679,0,0,0-3.58,3.086,7.807,7.807,0,0,0-.142,1.489v3.233c0,.209-.057.294-.284.289-.574,0-.569,0-.569-.631v-7.9a.8.8,0,0,1,0-.213.211.211,0,0,1,.133-.166,3,3,0,0,1,.545,0c.185,0,.18.171.175.308v2.053Z" transform="translate(855.705 43.783)" fill="#131722"/>
    <path id="Path_4202" data-name="Path 4202" d="M24.915,54.309a.834.834,0,0,1-.64-.266c-1.294-1.294-2.589-2.593-3.888-3.883a.858.858,0,0,1-.256-.887.811.811,0,0,1,.659-.588.844.844,0,0,1,.806.3l2.821,2.845c.37.37.754.73,1.1,1.119a.82.82,0,0,1-.4,1.346A1.473,1.473,0,0,1,24.915,54.309Z" transform="translate(916.403 32.224)" fill="#eb2053"/>
  </g>
</svg>
