<svg id="logo_hover_icon" xmlns="http://www.w3.org/2000/svg" width="128.34" height="56" viewBox="0 0 128.34 56">
  <g id="Group_20132" data-name="Group 20132" transform="translate(-7.038 -6.015)">
    <path id="Path_4192" data-name="Path 4192" d="M22.428,35.2a1.037,1.037,0,0,1-.544.859.92.92,0,0,1-1.023-.086,1.955,1.955,0,0,1-.223-.2L2.556,17.856a1.007,1.007,0,0,1-.386-.827.9.9,0,0,1,.544-.816.925.925,0,0,1,1,.1c.1.086.2.184.3.276L21.72,34.166a2.809,2.809,0,0,1,.4.405A5.24,5.24,0,0,1,22.428,35.2Z" transform="translate(29.83 7.859)" fill="#ff0054"/>
    <path id="Path_4197" data-name="Path 4197" d="M13.46,57.618a1.024,1.024,0,0,1-.763-.365l-2.222-2.222L2.592,47.148A1.089,1.089,0,0,1,2.216,46a.964.964,0,0,1,1.454-.479,2.07,2.07,0,0,1,.289.251l10.1,10.083a.948.948,0,0,1,.3,1.2.921.921,0,0,1-.9.567Z" transform="translate(29.827 -5.62)" fill="#ff0054"/>
    <path id="Path_4198" data-name="Path 4198" d="M29.045,12.772a.91.91,0,0,1-.577.9.888.888,0,0,1-1-.147c-.174-.147-.332-.31-.49-.468l-9.74-9.74A1.171,1.171,0,0,1,16.8,2.45a.915.915,0,0,1,.545-.855.872.872,0,0,1,.975.076,2.342,2.342,0,0,1,.332.283l9.969,9.969a1.2,1.2,0,0,1,.425.85Z" transform="translate(23.152 14.52)" fill="#ff0054"/>
    <path id="Path_4200" data-name="Path 4200" d="M14.931,15.344a3.034,3.034,0,0,1-.637-.365C12.79,13.5,11.3,12,9.8,10.5A.964.964,0,0,1,9.761,9.09a.953.953,0,0,1,1.411.027c.708.692,1.405,1.4,2.108,2.1l2.386,2.4a.91.91,0,0,1,.218,1.089.937.937,0,0,1-.9.583Z" transform="translate(26.499 11.191)" fill="#ff0054"/>
    <path id="Path_4202" data-name="Path 4202" d="M25.633,55.148a.959.959,0,0,1-.735-.305c-1.487-1.487-2.974-2.98-4.467-4.461a.986.986,0,0,1-.294-1.019.931.931,0,0,1,.757-.675.97.97,0,0,1,.926.349L25.061,52.3c.425.425.866.839,1.269,1.286a.942.942,0,0,1-.458,1.547A1.693,1.693,0,0,1,25.633,55.148Z" transform="translate(21.657 -7.132)" fill="#ff0054"/>
  </g>
  <rect id="Rectangle_4580" data-name="Rectangle 4580" width="70" height="56" fill="none"/>
  <g id="Group_20146" data-name="Group 20146" transform="translate(-1.8 -1.5)">
    <g id="Group_20132-2" data-name="Group 20132" transform="translate(-8.17 -5.146)">
      <path id="Path_4189" data-name="Path 4189" d="M233.618,24.288l.14-.129c.886-.948,1.768-1.9,2.657-2.841a.4.4,0,0,1,.228-.132h1.838a1.2,1.2,0,0,1-.092.136c-.845.864-1.691,1.731-2.543,2.591a.239.239,0,0,0-.033.368c.9,1.275,1.783,2.573,2.672,3.841l.125.191h-1.676a.309.309,0,0,1-.287-.151c-.643-.93-1.294-1.838-1.941-2.782-.033-.048-.074-.1-.143-.187l-.408.456a2.639,2.639,0,0,1-.346.368.735.735,0,0,0-.265.662c.018.485,0,.97,0,1.47,0,.147-.044.209-.2.206h-1.217c-.147,0-.209-.044-.209-.2v-9.5c0-.151.059-.191.2-.187h1.2c.18,0,.232.051.232.228v5.583Z" transform="translate(-100.299 8.505)" fill="#fcfcfc"/>
      <path id="Path_4190" data-name="Path 4190" d="M192.579,31.942c-.18.191-.345.393-.54.566a2.584,2.584,0,0,1-3.852-.61,3.091,3.091,0,0,1-.338-1.47V26.039c0-.221,0-.239.246-.239h1.143c.173,0,.235.048.235.228V29.81a2.348,2.348,0,0,0,.191,1,1.386,1.386,0,0,0,1.411.8,1.551,1.551,0,0,0,1.558-1.672V26.087c0-.272,0-.283.294-.283H194c.254,0,.257,0,.257.257v6.712c0,.132-.048.187-.184.184H192.8c-.132,0-.169-.051-.165-.173v-.812Z" transform="translate(-72.405 3.861)" fill="#fcfcfc"/>
      <path id="Path_4191" data-name="Path 4191" d="M153.275,25V21.279c0-.246,0-.261-.265-.261h-2.529c-.147,0-.206-.037-.2-.195V19.695c0-.136.029-.195.184-.195h7.3c.147,0,.195.048.191.191v1.125c0,.154-.051.2-.2.2h-2.507c-.3,0-.32.018-.32.327v7.322c0,.316,0,.316-.312.316h-1.07c-.279,0-.279,0-.279-.29Z" transform="translate(-48.628 7.852)" fill="#fcfcfc"/>
      <path id="Path_4193" data-name="Path 4193" d="M209.85,29.367a3.953,3.953,0,0,1,1.525-3.249,3.823,3.823,0,0,1,4.885.368c.11.118.132.2,0,.323-.254.257-.5.526-.735.8-.092.1-.158.1-.257,0a2.378,2.378,0,0,0-1.275-.735,2.077,2.077,0,0,0-2.47,1.727,2.488,2.488,0,0,0,.489,2.1,2.1,2.1,0,0,0,2.635.493,4.045,4.045,0,0,0,.68-.5c.11-.092.176-.118.287,0,.228.235.459.463.7.68.143.129.107.21,0,.327A3.767,3.767,0,0,1,209.935,30a4.781,4.781,0,0,1-.085-.629Z" transform="translate(-86.341 4.109)" fill="#fcfcfc"/>
      <path id="Path_4194" data-name="Path 4194" d="M81.95,27.378a2.525,2.525,0,0,1,2.338-1.338,2.459,2.459,0,0,1,2.246,1.47c.213-.25.4-.507.617-.735a2.742,2.742,0,0,1,4.043.309,3.08,3.08,0,0,1,.507,1.783c0,1.334,0,2.665,0,4,0,.235,0,.25-.254.25h-.165c-.169,0-.243-.092-.239-.257V28.782a2.275,2.275,0,0,0-.695-1.672,2.154,2.154,0,0,0-3.245.68,2.863,2.863,0,0,0-.3,1.316v3.76c0,.136,0,.261-.187.261-.368,0-.441-.029-.441-.261V30.66c0-.669,0-1.342-.029-2.007a1.985,1.985,0,0,0-1.161-1.838,2.161,2.161,0,0,0-2.852,1.22,2.915,2.915,0,0,0-.187.97c-.033,1.125-.033,2.26-.033,3.4v.368c0,.132,0,.3-.066.312a1.334,1.334,0,0,1-.47.022c-.033,0-.074-.074-.088-.121a.588.588,0,0,1,0-.18V26.5c0-.243.029-.279.21-.279.368,0,.419.029.423.276s0,.467,0,.7v.173Z" transform="translate(-4.957 3.717)" fill="#fcfcfc"/>
      <path id="Path_4195" data-name="Path 4195" d="M174.5,27.048c.085-.14.173-.283.261-.419a2.411,2.411,0,0,1,1.919-1.172c.283-.026.3,0,.3.261v1.272c0,.125-.029.187-.176.191a2.264,2.264,0,0,0-2.3,2.205c-.044.581-.037,1.165-.044,1.75v1.419c0,.132-.04.187-.18.184h-1.29c-.121,0-.165-.048-.162-.162s0-.272,0-.4V25.853c0-.265,0-.261.265-.261h1.161c.151,0,.206.044.2.2v1.246Z" transform="translate(-62.891 4.084)" fill="#fcfcfc"/>
      <path id="Path_4196" data-name="Path 4196" d="M56.34,27.386l.437-.507a11.143,11.143,0,0,0,1.1.776,4.135,4.135,0,0,0,3.459.408A1.8,1.8,0,0,0,62.6,25.971a1.562,1.562,0,0,0-.985-1.154,9.06,9.06,0,0,0-1.922-.559,7.652,7.652,0,0,1-1.739-.6,2.282,2.282,0,0,1-.4-3.767,3.308,3.308,0,0,1,1.963-.735,4.745,4.745,0,0,1,3.359,1.014l.147.125c-.11.136-.221.261-.312.4s-.158.118-.265.026a3.709,3.709,0,0,0-1.36-.757A3.628,3.628,0,0,0,58.575,20a1.713,1.713,0,0,0-1.161,1.661,1.507,1.507,0,0,0,.8,1.356,7.256,7.256,0,0,0,2.04.658,7.821,7.821,0,0,1,1.838.61,2.336,2.336,0,0,1,.107,4.043,3.808,3.808,0,0,1-2.11.551,5.363,5.363,0,0,1-3.62-1.415A1.382,1.382,0,0,0,56.34,27.386Z" transform="translate(10.83 8.079)" fill="#fcfcfc"/>
      <path id="Path_4199" data-name="Path 4199" d="M120.022,32.107l-.3.316a3.337,3.337,0,0,1-4.208.338,2.051,2.051,0,0,1,.143-3.308,3.628,3.628,0,0,1,1.768-.515,8.332,8.332,0,0,1,2.411.228c.206.048.224.037.224-.176a2.272,2.272,0,0,0-.368-1.4,1.988,1.988,0,0,0-1.47-.768,4.234,4.234,0,0,0-2.341.39c-.085.04-.261.074-.279.044a1.978,1.978,0,0,1-.162-.456c0-.029.074-.1.125-.118a4.9,4.9,0,0,1,3.337-.368,2.282,2.282,0,0,1,1.775,2.294V33c0,.147-.051.2-.195.187h-.092c-.3,0-.338-.04-.342-.338v-.735Zm-2.367.665a3.029,3.029,0,0,0,1.661-.621,1.68,1.68,0,0,0,.709-1.1c.051-.331.026-.673.055-1.007a.235.235,0,0,0-.217-.29,8.237,8.237,0,0,0-2.595-.224,3.11,3.11,0,0,0-.959.261,1.389,1.389,0,0,0-.878,1.334,1.408,1.408,0,0,0,.809,1.342,2.83,2.83,0,0,0,1.415.309Z" transform="translate(-26.136 3.622)" fill="#fcfcfc"/>
      <path id="Path_4201" data-name="Path 4201" d="M138.132,28.161l.169-.272a3.267,3.267,0,0,1,1.948-1.558,5.991,5.991,0,0,1,.735-.11c.121,0,.18.037.176.169s0,.257,0,.386-.066.173-.184.184a2.852,2.852,0,0,0-2.775,2.393,6.049,6.049,0,0,0-.11,1.154v2.507c0,.162-.044.228-.221.224-.445,0-.441,0-.441-.489V26.624a.617.617,0,0,1,0-.165.164.164,0,0,1,.1-.129,2.323,2.323,0,0,1,.423,0c.143,0,.14.132.136.239v1.592Z" transform="translate(-40.489 3.595)" fill="#fcfcfc"/>
    </g>
    <text id="Shipper_lite" data-name="Shipper lite" transform="translate(59 44.8)" fill="rgba(255,255,255,0.6)" font-size="10" font-family="ProximaNova-Semibold, Proxima Nova" font-weight="600"><tspan x="0" y="0">RAIL </tspan><tspan y="0" font-family="ProximaNova-SemiboldIt, Proxima Nova">Trakcing</tspan></text>
  </g>
</svg>
