<svg id="non_tracking_icon" xmlns="http://www.w3.org/2000/svg" width="24" height="24" viewBox="0 0 24 24">
  <g id="Ellipse_197" data-name="Ellipse 197" transform="translate(8.625 8.625)" fill="none" stroke="#ea5950" stroke-width="1.4">
    <circle cx="3.375" cy="3.375" r="3.375" stroke="none"/>
    <circle cx="3.375" cy="3.375" r="2.675" fill="none"/>
  </g>
  <path id="Path_17000" data-name="Path 17000" d="M28,18a.667.667,0,0,1-.667.667H25.3A7.25,7.25,0,0,1,24.693,21a.667.667,0,0,1-.608.394.658.658,0,0,1-.273-.059.667.667,0,0,1-.333-.881,6.005,6.005,0,0,0-7.4-8.141.667.667,0,1,1-.427-1.262,7.267,7.267,0,0,1,1.683-.353V8.667a.667.667,0,1,1,1.333,0V10.7A7.344,7.344,0,0,1,25.3,17.333h2.031A.667.667,0,0,1,28,18Zm-2.84,6.885a.667.667,0,1,1-.987.9l-1.757-1.929a7.308,7.308,0,0,1-3.75,1.45v2.031a.667.667,0,1,1-1.333,0V25.3A7.344,7.344,0,0,1,10.7,18.667H8.667a.667.667,0,1,1,0-1.333H10.7a7.359,7.359,0,0,1,1.9-4.288l-1.755-1.93a.667.667,0,1,1,.987-.9ZM21.517,22.86,13.5,14.038a6,6,0,0,0,8.017,8.823Z" transform="translate(-6 -6)" fill="#ea5950"/>
  <rect id="Rectangle_4994" data-name="Rectangle 4994" width="24" height="24" fill="none"/>
</svg>
