<svg xmlns="http://www.w3.org/2000/svg" xmlns:xlink="http://www.w3.org/1999/xlink" fill="none" version="1.1" width="30" height="30" viewBox="0 0 30 30"><defs><clipPath id="master_svg0_1_145"><rect x="0" y="0" width="30" height="30" rx="0"/></clipPath></defs><g clip-path="url(#master_svg0_1_145)"><g transform="matrix(1,0,0,-1,0,61.289039611816406)"><g><path d="M13.153875852870941,55.0195198059082Q13.153875852870941,55.839819805908206,13.67307585287094,56.367219805908206Q14.19237585287094,56.8945198059082,14.999975852870941,56.8945198059082Q15.807675852870942,56.8945198059082,16.32697585287094,56.367219805908206Q16.846175852870942,55.839819805908206,16.846175852870942,55.0195198059082Q16.846175852870942,54.1992198059082,16.32697585287094,53.6718198059082Q15.807675852870942,53.1445198059082,14.999975852870941,53.1445198059082Q14.19237585287094,53.1445198059082,13.67307585287094,53.6718198059082Q13.153875852870941,54.1992198059082,13.153875852870941,55.0195198059082ZM20.250075852870943,53.1445198059082Q20.538475852870942,54.023419805908205,20.538475852870942,55.0195198059082Q20.48077585287094,57.4218198059082,18.92307585287094,59.003919805908204Q17.36537585287094,60.585919805908205,14.999975852870941,60.6445198059082Q12.634675852870942,60.585919805908205,11.076975852870941,59.003919805908204Q9.519255852870941,57.4218198059082,9.46156585287094,55.0195198059082Q9.46156585287094,54.023419805908205,9.807715852870942,53.1445198059082L7.153875852870941,53.1445198059082Q6.1731058528709415,53.1445198059082,5.4231058528709415,52.55861980590821Q4.7307958528709415,51.9726198059082,4.442335852870941,51.0351198059082L0.28848675287094117,34.1601398059082Q0.000024852870941172167,32.8124898059082,0.8077178528709411,31.699209805908204Q1.6731058528709413,30.644519805908203,3.0000258528709414,30.644519805908203L27.000075852870943,30.644519805908203Q28.32697585287094,30.644519805908203,29.192375852870942,31.699209805908204Q30.000075852870943,32.8124898059082,29.71157585287094,34.1601398059082L25.55767585287094,51.0351198059082Q25.26927585287094,51.9726198059082,24.57697585287094,52.55861980590821Q23.82697585287094,53.1445198059082,22.846175852870942,53.1445198059082L20.250075852870943,53.1445198059082Z" fill="#000000" fill-opacity="1" style="mix-blend-mode:passthrough"/></g></g></g></svg>