<svg xmlns="http://www.w3.org/2000/svg" width="32" height="32" viewBox="0 0 32 32">
  <g id="notification_icon" transform="translate(-1312 -12)">
    <circle id="Ellipse_139" data-name="Ellipse 139" cx="16" cy="16" r="16" transform="translate(1312 12)" fill="#f0f3f9"/>
    <g id="bell-fill" transform="translate(1320 20)">
      <path id="Path_16709" data-name="Path 16709" d="M8,16a2,2,0,0,0,2-2H6A2,2,0,0,0,8,16Z" fill="#0168ff"/>
      <path id="Path_16710" data-name="Path 16710" d="M9,1.1Q9,1.05,9,1A1,1,0,0,0,7,1q0,.05,0,.1A5,5,0,0,0,3,6c0,1.1-.5,6-2,7H15c-1.5-1-2-5.9-2-7A5,5,0,0,0,9,1.1Z" fill="#07004d"/>
    </g>
  </g>
</svg>
