<svg id="open_eye_icon" xmlns="http://www.w3.org/2000/svg" width="24" height="24" viewBox="0 0 24 24">
  <g id="closed_eye_icon" transform="translate(-1308 -365)">
    <g id="eye-slash" transform="translate(1312 368.954)">
      <path id="Path_7833" data-name="Path 7833" d="M13.359,11.238A13.6,13.6,0,0,0,16,8S13,2.5,8,2.5a7.028,7.028,0,0,0-2.79.588l.771.771A5.944,5.944,0,0,1,8,3.5a7.458,7.458,0,0,1,5.168,2.457,13.134,13.134,0,0,1,1.465,1.755c.073.1.138.2.195.288-.057.087-.122.183-.195.288a13.136,13.136,0,0,1-1.465,1.755c-.165.165-.337.328-.517.486Z" fill="#71747a"/>
      <path id="Path_7834" data-name="Path 7834" d="M11.3,9.176A3.5,3.5,0,0,0,6.824,4.7l.822.822a2.5,2.5,0,0,1,2.829,2.829Z" fill="#71747a"/>
      <path id="Path_7835" data-name="Path 7835" d="M8.354,10.475l.822.822A3.5,3.5,0,0,1,4.7,6.824l.822.822a2.5,2.5,0,0,0,2.829,2.829Z" fill="#71747a"/>
      <path id="Path_7836" data-name="Path 7836" d="M3.349,5.471c-.18.159-.353.322-.517.486A13.134,13.134,0,0,0,1.367,7.712c-.073.1-.138.2-.195.288.057.087.122.183.195.288a13.136,13.136,0,0,0,1.465,1.755A7.459,7.459,0,0,0,8,12.5a5.945,5.945,0,0,0,2.019-.359l.771.771A7.027,7.027,0,0,1,8,13.5C3,13.5,0,8,0,8A13.6,13.6,0,0,1,2.641,4.762Z" fill="#71747a"/>
      <path id="Path_7837" data-name="Path 7837" d="M13.646,14.354l-12-12,.707-.707,12,12Z" fill="#71747a"/>
    </g>
    <rect id="Rectangle_4313" data-name="Rectangle 4313" width="24" height="24" transform="translate(1308 365)" fill="none"/>
  </g>
</svg>
