<svg xmlns="http://www.w3.org/2000/svg" width="24" height="24" viewBox="0 0 24 24">
  <g id="polylines_icon" transform="translate(3850 -742)">
    <path id="Path_17124" data-name="Path 17124" d="M27.1,18.858a2.758,2.758,0,0,0-3.9,0h0a2.749,2.749,0,0,0-.445.583l-2.432-.664a2.758,2.758,0,0,0-4.708-1.987h0a2.763,2.763,0,0,0-.5,3.224L12.19,22.646A2.762,2.762,0,0,0,8.716,23h0a2.758,2.758,0,0,0,3.7,4.086l6.033,4.426a2.758,2.758,0,1,0,4.1-1.266l2.361-6.687q.119.01.238.01a2.758,2.758,0,0,0,1.95-4.707ZM16.583,17.764h0a1.383,1.383,0,1,1-.4.975,1.379,1.379,0,0,1,.4-.975ZM9.688,25.921a1.379,1.379,0,0,1,0-1.951h0a1.379,1.379,0,1,1,0,1.951Zm12.294,7.584a1.379,1.379,0,1,1-1.95-1.95h0a1.379,1.379,0,0,1,1.95,1.95Zm-.737-3.721a2.758,2.758,0,0,0-1.982.61l-6.033-4.426a2.773,2.773,0,0,0-.115-2.3l2.926-2.633a2.758,2.758,0,0,0,3.919-.932l2.429.664A2.758,2.758,0,0,0,23.605,23.1Zm4.875-8a1.379,1.379,0,1,1-1.948-1.949h0a1.379,1.379,0,0,1,1.95,1.95Z" transform="translate(-3855.901 728.319)" fill="#45475b"/>
    <rect id="Rectangle_5233" data-name="Rectangle 5233" width="24" height="24" transform="translate(-3850 742)" fill="none"/>
  </g>
</svg>
