<svg xmlns="http://www.w3.org/2000/svg" width="20" height="20" viewBox="0 0 20 20">
  <g id="rakes_loaded_icon" transform="translate(-109.949 -119.949)">
    <g id="train_737096_1_" data-name="train_737096 (1)" transform="translate(113.561 121.658)">
      <path id="Path_16968" data-name="Path 16968" d="M61.858,17.582c-.573,0-1.146,0-1.743-.009a.123.123,0,0,1,.029-.1q.609-.677,1.221-1.352c.363-.4.731-.793,1.093-1.192.158-.174.308-.355.474-.548h-.573a3.308,3.308,0,0,1-.6-.007,1.93,1.93,0,0,1-1.179-.673,1.755,1.755,0,0,1-.439-1.116q0-3.821,0-7.641a3.008,3.008,0,0,1,.036-.606,5.447,5.447,0,0,1,.27-.989A3.827,3.827,0,0,1,62.9,1.161c.213-.057.428-.108.642-.161,1.955,0,3.909,0,5.884.013.084.016.151.009.213.023a4.265,4.265,0,0,1,1.581.677,3.79,3.79,0,0,1,1.153,1.3,3.94,3.94,0,0,1,.469,1.935c-.013,2.488-.008,4.975,0,7.463a1.9,1.9,0,0,1-.388,1.2,1.816,1.816,0,0,1-1.439.759c-.315.01-.631,0-.981,0,.249.271.477.515.7.763.456.506.907,1.016,1.363,1.522.243.27.492.534.735.8a.327.327,0,0,1,.04.118c-.573,0-1.146,0-1.736-.011-.2-.206-.391-.394-.56-.6s-.316-.391-.616-.33a.993.993,0,0,1-.194,0q-3.455,0-6.91,0a.3.3,0,0,0-.2.065c-.272.285-.533.58-.8.872M71.148,13a1.842,1.842,0,0,0,.229-.184.771.771,0,0,0,.162-.544c0-.8,0-1.608,0-2.412V9.111c-.25.017-.492.048-.734.048q-4.29.005-8.581,0c-.262,0-.524-.03-.79-.046,0,1.056,0,2.146,0,3.236a.866.866,0,0,0,.063.3.69.69,0,0,0,.719.425q4.266,0,8.532,0A1.969,1.969,0,0,0,71.148,13M62.943,4.886c-.243,0-.486-.007-.728,0a1.125,1.125,0,0,0-.352.064.683.683,0,0,0-.423.7c-.008.48-.006.96,0,1.441a1,1,0,0,0,.066.352.7.7,0,0,0,.727.415c1.165,0,2.331,0,3.5,0,.046,0,.093,0,.135-.007V4.886H62.943m8.6,2.054c0-.426.007-.853,0-1.279a.669.669,0,0,0-.322-.655,1.146,1.146,0,0,0-.48-.116c-1.138-.01-2.277-.005-3.416-.005h-.144V7.849c.011.009.015.015.019.015,1.2,0,2.407.007,3.61,0a.639.639,0,0,0,.672-.44,2.67,2.67,0,0,0,.064-.481M64.5,3.591h6.655a2.365,2.365,0,0,0-.906-.92A2.76,2.76,0,0,0,68.756,2.3c-1.621,0-3.242.02-4.863.028a1.9,1.9,0,0,0-.905.222,4.739,4.739,0,0,0-.777.523,3.253,3.253,0,0,0-.411.519h2.7m3.141,11.756h1.473c-.043-.054-.058-.075-.076-.094-.192-.213-.377-.434-.58-.637-.1-.1-.163-.246-.352-.245-1.078.007-2.156,0-3.234.007a.294.294,0,0,0-.192.079c-.262.273-.516.554-.772.833-.008.009,0,.029,0,.056Z" transform="translate(-60.113 -1)" fill="#131722"/>
      <path id="Path_16971" data-name="Path 16971" d="M114.469,484.546c.249-.293.511-.589.782-.875a.3.3,0,0,1,.2-.065q3.45,0,6.9,0a.986.986,0,0,0,.194,0c.3-.061.452.132.615.332s.36.4.544.6Q119.094,484.552,114.469,484.546Z" transform="translate(-112.701 -467.964)" fill="#fff"/>
      <path id="Path_16972" data-name="Path 16972" d="M110.68,255.357a2.053,2.053,0,0,1-.381.068q-4.262.005-8.523,0a.688.688,0,0,1-.719-.426.873.873,0,0,1-.063-.305c0-1.094,0-2.189,0-3.248.266.016.527.046.789.046q4.286,0,8.572,0c.241,0,.483-.031.733-.048v.756c0,.807,0,1.615,0,2.422a.776.776,0,0,1-.162.547,1.651,1.651,0,0,1-.241.19m-7.2-1.51a.716.716,0,0,0-.078-.848.688.688,0,0,0-.735-.135.559.559,0,0,0-.384.491.648.648,0,0,0,.311.7.7.7,0,0,0,.885-.212m5.308.2a.705.705,0,0,0,.844-.116.69.69,0,0,0,.1-.755.6.6,0,0,0-.607-.357.608.608,0,0,0-.612.459A.677.677,0,0,0,108.792,254.051Z" transform="translate(-99.662 -243.342)" fill="#f8f8f8"/>
      <path id="Path_16973" data-name="Path 16973" d="M102.43,120.932h2.917v2.984c-.042,0-.089.007-.135.007-1.17,0-2.34,0-3.51,0a.7.7,0,0,1-.73-.416,1,1,0,0,1-.067-.353c-.007-.482-.009-.964,0-1.446a.685.685,0,0,1,.425-.706,1.129,1.129,0,0,1,.354-.064C101.926,120.925,102.17,120.932,102.43,120.932Z" transform="translate(-99.575 -117.049)" fill="#f8f8f8"/>
      <path id="Path_16974" data-name="Path 16974" d="M282.6,123.047a2.7,2.7,0,0,1-.064.467.641.641,0,0,1-.674.441c-1.208.009-2.416,0-3.624,0,0,0-.008-.006-.02-.015v-2.974h.145c1.143,0,2.286,0,3.429.005a1.151,1.151,0,0,1,.482.116.671.671,0,0,1,.323.657C282.61,122.175,282.6,122.6,282.6,123.047Z" transform="translate(-271.177 -117.085)" fill="#f8f8f8"/>
      <path id="Path_16975" data-name="Path 16975" d="M114.87,42.385h-2.678a3.263,3.263,0,0,1,.411-.521,4.731,4.731,0,0,1,.776-.525,1.889,1.889,0,0,1,.9-.223c1.619-.008,3.237-.025,4.856-.029a2.744,2.744,0,0,1,1.489.374,2.368,2.368,0,0,1,.9.923Z" transform="translate(-110.499 -39.784)" fill="#f8f8f8"/>
      <path id="Path_16976" data-name="Path 16976" d="M180.878,414.874h-3.734c0-.027,0-.047,0-.056.256-.281.511-.563.775-.837a.3.3,0,0,1,.192-.079c1.082,0,2.165,0,3.247-.007.189,0,.254.146.353.246.2.2.389.425.582.639.017.019.032.04.076.094Z" transform="translate(-173.364 -400.536)" fill="#f8f8f8"/>
      <path id="Path_16977" data-name="Path 16977" d="M142.031,294.679a.7.7,0,0,1-.881.2.647.647,0,0,1-.313-.7.56.56,0,0,1,.386-.491.694.694,0,0,1,.739.135A.713.713,0,0,1,142.031,294.679Z" transform="translate(-138.217 -284.163)" fill="#3350fc"/>
      <path id="Path_16978" data-name="Path 16978" d="M333.1,295.1a.665.665,0,0,1-.269-.76.611.611,0,0,1,.615-.459.6.6,0,0,1,.61.357.687.687,0,0,1-.1.755A.708.708,0,0,1,333.1,295.1Z" transform="translate(-323.975 -284.396)" fill="#3350fc"/>
    </g>
    <rect id="Rectangle_4969" data-name="Rectangle 4969" width="20" height="20" transform="translate(109.949 119.949)" fill="none"/>
  </g>
</svg>
