<svg xmlns="http://www.w3.org/2000/svg" width="48" height="48" viewBox="0 0 48 48">
  <g id="rakes_loaded_icon" transform="translate(-110 -120)">
    <g id="train_737096_1_" data-name="train_737096 (1)" transform="translate(112.49 123)">
      <path id="Path_16968" data-name="Path 16968" d="M64.322,41c-1.382,0-2.764,0-4.205-.022a.3.3,0,0,1,.071-.253q1.47-1.634,2.946-3.262c.875-.962,1.763-1.913,2.637-2.875.381-.42.742-.857,1.143-1.322H65.532a7.979,7.979,0,0,1-1.442-.016,4.655,4.655,0,0,1-2.845-1.623,4.234,4.234,0,0,1-1.06-2.691q-.012-9.216,0-18.432a7.257,7.257,0,0,1,.088-1.461,13.14,13.14,0,0,1,.651-2.386,9.231,9.231,0,0,1,5.913-5.266c.514-.138,1.032-.26,1.548-.389,4.715,0,9.43,0,14.193.031.2.038.364.022.514.054A10.287,10.287,0,0,1,86.9,2.717a9.143,9.143,0,0,1,2.781,3.145,9.5,9.5,0,0,1,1.132,4.667c-.031,6-.02,12,0,18a4.578,4.578,0,0,1-.937,2.9,4.379,4.379,0,0,1-3.47,1.83c-.76.025-1.522,0-2.366,0,.6.653,1.15,1.242,1.688,1.84,1.1,1.222,2.188,2.451,3.288,3.672.586.651,1.187,1.287,1.772,1.938a.79.79,0,0,1,.1.284c-1.382,0-2.764,0-4.187-.026-.481-.5-.943-.951-1.351-1.447-.395-.48-.763-.943-1.486-.8a2.4,2.4,0,0,1-.468,0q-8.334,0-16.668.007a.716.716,0,0,0-.476.157c-.655.688-1.286,1.4-1.925,2.1m22.41-11.042a4.442,4.442,0,0,0,.553-.444,1.859,1.859,0,0,0,.391-1.313c.01-1.94,0-3.88,0-5.819V20.566c-.6.042-1.187.116-1.77.116q-10.35.012-20.7,0c-.632,0-1.264-.071-1.905-.11,0,2.547,0,5.176.007,7.806a2.089,2.089,0,0,0,.152.734A1.664,1.664,0,0,0,65.2,30.136q10.291.012,20.582,0a4.751,4.751,0,0,0,.949-.176M66.939,10.375c-.586,0-1.172-.016-1.757.007a2.714,2.714,0,0,0-.85.155,1.647,1.647,0,0,0-1.021,1.7c-.02,1.158-.015,2.317,0,3.475a2.4,2.4,0,0,0,.16.849,1.686,1.686,0,0,0,1.753,1c2.811.01,5.623,0,8.434,0,.112,0,.224-.012.325-.017v-7.17H66.939m20.741,4.956c0-1.028.017-2.057-.006-3.085a1.613,1.613,0,0,0-.777-1.579,2.765,2.765,0,0,0-1.159-.28c-2.746-.023-5.493-.012-8.239-.012h-.348v7.147c.027.021.037.036.047.036,2.9,0,5.805.018,8.708,0a1.54,1.54,0,0,0,1.62-1.061,6.442,6.442,0,0,0,.155-1.161M70.689,7.25H86.742a5.7,5.7,0,0,0-2.184-2.219,6.657,6.657,0,0,0-3.6-.9c-3.91.007-7.82.049-11.731.069a4.582,4.582,0,0,0-2.184.537A11.432,11.432,0,0,0,65.173,6a7.847,7.847,0,0,0-.992,1.251h6.508m7.578,28.359H81.82c-.1-.13-.141-.18-.182-.226-.463-.515-.91-1.047-1.4-1.536-.239-.239-.394-.593-.848-.59-2.6.017-5.2,0-7.8.016a.71.71,0,0,0-.462.191c-.633.658-1.245,1.336-1.861,2.01-.019.021-.006.071-.009.135Z" transform="translate(-54.013 0)" fill="#131722"/>
      <path id="Path_16971" data-name="Path 16971" d="M114.469,485.9c.6-.706,1.232-1.42,1.886-2.111a.712.712,0,0,1,.475-.157q8.322-.012,16.643-.007a2.384,2.384,0,0,0,.467,0c.722-.147,1.09.318,1.484.8.408.5.869.953,1.312,1.453Q125.626,485.91,114.469,485.9Z" transform="translate(-104.106 -444.897)" fill="#fff"/>
      <path id="Path_16972" data-name="Path 16972" d="M124.364,260.885a4.952,4.952,0,0,1-.919.164q-10.28.013-20.56,0a1.661,1.661,0,0,1-1.734-1.029,2.106,2.106,0,0,1-.152-.736c-.011-2.64-.007-5.279-.007-7.836.641.039,1.272.11,1.9.111q10.339.012,20.678,0c.582,0,1.164-.075,1.768-.117v1.823c0,1.947.006,3.895,0,5.842a1.872,1.872,0,0,1-.391,1.319,3.986,3.986,0,0,1-.581.458m-17.358-3.642a1.728,1.728,0,0,0-.187-2.046,1.659,1.659,0,0,0-1.773-.325,1.349,1.349,0,0,0-.927,1.183,1.563,1.563,0,0,0,.751,1.7,1.7,1.7,0,0,0,2.136-.512m12.8.491a1.7,1.7,0,0,0,2.036-.279,1.664,1.664,0,0,0,.237-1.822,1.444,1.444,0,0,0-1.465-.861,1.467,1.467,0,0,0-1.476,1.107A1.633,1.633,0,0,0,119.809,257.734Z" transform="translate(-91.685 -230.901)" fill="#fff"/>
      <path id="Path_16973" data-name="Path 16973" d="M104.593,120.935h7.036v7.2c-.1.006-.214.017-.326.017-2.822,0-5.645.007-8.467,0a1.692,1.692,0,0,1-1.76-1,2.41,2.41,0,0,1-.161-.852c-.017-1.163-.022-2.326,0-3.489a1.653,1.653,0,0,1,1.025-1.7,2.725,2.725,0,0,1,.853-.155C103.377,120.919,103.966,120.935,104.593,120.935Z" transform="translate(-91.607 -110.568)" fill="#fff"/>
      <path id="Path_16974" data-name="Path 16974" d="M288.792,125.983a6.517,6.517,0,0,1-.155,1.127,1.547,1.547,0,0,1-1.626,1.065c-2.914.023-5.828.007-8.742,0-.01,0-.02-.014-.047-.036V120.97h.349c2.757,0,5.515-.011,8.272.012a2.775,2.775,0,0,1,1.164.281,1.619,1.619,0,0,1,.78,1.585C288.809,123.88,288.792,124.913,288.792,125.983Z" transform="translate(-255.13 -110.603)" fill="#fff"/>
      <path id="Path_16975" data-name="Path 16975" d="M118.652,44.217h-6.46a7.871,7.871,0,0,1,.991-1.256,11.413,11.413,0,0,1,1.871-1.267,4.556,4.556,0,0,1,2.181-.539c3.9-.02,7.809-.061,11.714-.069a6.62,6.62,0,0,1,3.591.9,5.711,5.711,0,0,1,2.181,2.228Z" transform="translate(-102.008 -36.943)" fill="#fff"/>
      <path id="Path_16976" data-name="Path 16976" d="M186.152,416.257h-9.007c0-.064-.01-.114.009-.135.619-.677,1.233-1.357,1.868-2.018a.713.713,0,0,1,.464-.191c2.611-.012,5.222,0,7.833-.016.456,0,.612.352.852.592.491.491.939,1.025,1.4,1.542.041.046.078.1.183.227Z" transform="translate(-161.927 -380.668)" fill="#fff"/>
      <path id="Path_16977" data-name="Path 16977" d="M143.729,296.151a1.7,1.7,0,0,1-2.126.489,1.561,1.561,0,0,1-.755-1.7,1.35,1.35,0,0,1,.931-1.183,1.673,1.673,0,0,1,1.782.325A1.719,1.719,0,0,1,143.729,296.151Z" transform="translate(-128.428 -269.783)" fill="#19be8a"/>
      <path id="Path_16978" data-name="Path 16978" d="M333.514,296.818a1.6,1.6,0,0,1-.65-1.833,1.473,1.473,0,0,1,1.483-1.107,1.452,1.452,0,0,1,1.472.861,1.658,1.658,0,0,1-.239,1.822A1.708,1.708,0,0,1,333.514,296.818Z" transform="translate(-305.408 -270.004)" fill="#19be8a"/>
    </g>
    <rect id="Rectangle_4969" data-name="Rectangle 4969" width="48" height="48" transform="translate(110 120)" fill="none"/>
  </g>
</svg>
