<svg id="Layer_1" data-name="Layer 1" xmlns="http://www.w3.org/2000/svg" viewBox="0 0 33 33"><defs><style>.cls-1,.cls-2{fill:none;}.cls-2{stroke:#c40c0c;stroke-width:1.5px;}.cls-3{fill:#c40c0c;}</style></defs><g id="Ellipse_99" data-name="Ellipse 99"><ellipse class="cls-1" cx="16.6" cy="16.7" rx="15.59" ry="14.84"/><ellipse class="cls-2" cx="16.6" cy="16.7" rx="14.88" ry="14.13"/></g><path id="Path_1474" data-name="Path 1474" class="cls-3" d="M18.51,19.52a.46.46,0,0,1,.54-.31,9.18,9.18,0,0,1,3.52,1,2.15,2.15,0,0,1,1.28,2.06,2.4,2.4,0,0,1-1,1.72,7.21,7.21,0,0,1-3.1,1.36A15.75,15.75,0,0,1,11.51,25a5.52,5.52,0,0,1-2.28-1.32A2,2,0,0,1,9,20.84a1.82,1.82,0,0,1,.52-.44,6.71,6.71,0,0,1,2.79-1c.36-.07.73-.11,1.09-.15a.33.33,0,0,1,.29,0c.07.07.17.14.16.21s-.13.08-.22.09a8.8,8.8,0,0,0-2.52.68,2.67,2.67,0,0,0-.89.63,1,1,0,0,0,0,1.39,3,3,0,0,0,1.13.86,9.53,9.53,0,0,0,3.36.86,13.55,13.55,0,0,0,5.76-.57A4.36,4.36,0,0,0,22,22.52,1.13,1.13,0,0,0,22.28,21a1.16,1.16,0,0,0-.45-.4,5.9,5.9,0,0,0-2.29-.86Z"/><path id="Path_1473" data-name="Path 1473" class="cls-3" d="M16.23,6.55a5,5,0,0,1,5,4.48,6.22,6.22,0,0,1-.57,3.29,56.69,56.69,0,0,1-4.39,8c-.06.1-.12.22-.23,0a45.57,45.57,0,0,1-4.75-9,5,5,0,0,1,4.9-6.81Zm-1.82,5.26A1.77,1.77,0,1,0,16.18,10h0A1.8,1.8,0,0,0,14.41,11.81Z"/></svg>