<svg xmlns="http://www.w3.org/2000/svg" width="24" height="24" viewBox="0 0 24 24">
  <g id="report_deactive_icon" transform="translate(-23 -598)">
    <path id="file-earmark-bar-graph-fill" d="M10.2,0H4.25A2.25,2.25,0,0,0,2,2.25v13.5A2.25,2.25,0,0,0,4.25,18h9a2.25,2.25,0,0,0,2.25-2.25V5.3a1.125,1.125,0,0,0-.33-.8L11,.33A1.125,1.125,0,0,0,10.2,0Zm.233,3.938V1.688l3.375,3.375h-2.25A1.125,1.125,0,0,1,10.438,3.938ZM11,15.188V9.5a.563.563,0,0,1,.563-.563h1.125a.563.563,0,0,1,.563.563v5.685a.563.563,0,0,1-.562.563H11.563A.563.563,0,0,1,11,15.188Zm-2.813.563a.563.563,0,0,1-.563-.562V11.921a.563.563,0,0,1,.563-.562H9.313a.563.563,0,0,1,.563.563v3.266a.563.563,0,0,1-.562.563Zm-3.375,0a.563.563,0,0,1-.563-.562l.043-6.75a.563.563,0,0,1,.563-.562H5.98a.563.563,0,0,1,.563.562L6.5,15.188a.563.563,0,0,1-.562.563Z" transform="translate(26.3 601)" fill="#000"/>
    <rect id="Rectangle_4581" data-name="Rectangle 4581" width="24" height="24" transform="translate(23 598)" fill="none"/>
  </g>
</svg>
