<svg xmlns="http://www.w3.org/2000/svg" width="24" height="24" viewBox="0 0 24 24">
  <g id="rr_document_icon" transform="translate(4071 -632)">
    <g id="Group_21484" data-name="Group 21484" transform="translate(2.8 25.991)">
      <path id="Path_17115" data-name="Path 17115" d="M55.036,29.049,50.187,24.2a.693.693,0,0,0-.49-.2H41.385A1.385,1.385,0,0,0,40,25.385v6.231a.693.693,0,0,0,1.385,0V25.385H49v4.154a.692.692,0,0,0,.693.692h4.156V40.615H52.468a.692.692,0,1,0,0,1.385h1.385a1.385,1.385,0,0,0,1.385-1.385V29.538A.692.692,0,0,0,55.036,29.049ZM50.39,26.363l2.484,2.483H50.39Z" transform="translate(-4109.459 585.002)" fill="#45475b"/>
      <path id="Path_17116" data-name="Path 17116" d="M42.078,35.536H40.693a.693.693,0,0,0-.693.693v4.849a.693.693,0,1,0,1.385,0v-.693h.693a2.466,2.466,0,0,0,.5-.051l.637,1.09a.693.693,0,0,0,1.2-.693l-.616-1.058a2.424,2.424,0,0,0-1.714-4.137ZM41.385,39V36.921h.693a1.039,1.039,0,1,1,0,2.078Z" transform="translate(-4103.642 583.847)" fill="#334ffc"/>
      <path id="Path_17117" data-name="Path 17117" d="M42.078,35.536H40.693a.693.693,0,0,0-.693.693v4.849a.693.693,0,1,0,1.385,0v-.693h.693a2.466,2.466,0,0,0,.5-.051l.637,1.09a.693.693,0,0,0,1.2-.693l-.616-1.058a2.424,2.424,0,0,0-1.714-4.137ZM41.385,39V36.921h.693a1.039,1.039,0,1,1,0,2.078Z" transform="translate(-4109.459 583.847)" fill="#334ffc"/>
    </g>
    <rect id="Rectangle_5228" data-name="Rectangle 5228" width="24" height="24" transform="translate(-4071 632)" fill="none"/>
  </g>
</svg>
