<svg xmlns="http://www.w3.org/2000/svg" width="24" height="24" viewBox="0 0 24 24">
  <g id="shipments_bg_icon" transform="translate(-8938.014 -7090.014)">
    <path id="train_FILL0_wght400_GRAD0_opsz24" d="M160-865.3v-10.344a3.3,3.3,0,0,1,.776-2.3,4.9,4.9,0,0,1,2.045-1.307,11.972,11.972,0,0,1,2.891-.6q1.622-.15,3.315-.15,1.862,0,3.512.15a11.392,11.392,0,0,1,2.877.6,4.385,4.385,0,0,1,1.932,1.307,3.51,3.51,0,0,1,.705,2.3V-865.3a3.617,3.617,0,0,1-1.142,2.709,3.888,3.888,0,0,1-2.807,1.1l1.693,1.633v.544H173.54l-2.257-2.178H166.77l-2.257,2.178h-2.257v-.544l1.693-1.633a3.888,3.888,0,0,1-2.807-1.1A3.617,3.617,0,0,1,160-865.3Zm9.027-12.522a20.121,20.121,0,0,0-4.372.34,5.215,5.215,0,0,0-1.89.749H175.4a3.669,3.669,0,0,0-1.819-.776A23.264,23.264,0,0,0,169.027-877.822Zm-6.77,6.533H167.9v-3.267h-5.642Zm11.848,2.178h0Zm-3.949-2.178H175.8v-3.267h-5.642Zm-5.078,6.533a1.677,1.677,0,0,0,1.213-.463,1.558,1.558,0,0,0,.48-1.171,1.558,1.558,0,0,0-.48-1.171,1.676,1.676,0,0,0-1.213-.463,1.676,1.676,0,0,0-1.213.463,1.558,1.558,0,0,0-.48,1.171,1.558,1.558,0,0,0,.48,1.171A1.677,1.677,0,0,0,165.078-864.756Zm7.9,0a1.677,1.677,0,0,0,1.213-.463,1.558,1.558,0,0,0,.48-1.171,1.558,1.558,0,0,0-.48-1.171,1.676,1.676,0,0,0-1.213-.463,1.676,1.676,0,0,0-1.213.463,1.558,1.558,0,0,0-.48,1.171,1.558,1.558,0,0,0,.48,1.171A1.677,1.677,0,0,0,172.976-864.756Zm-9.027,1.089H174.1a1.676,1.676,0,0,0,1.213-.463,1.557,1.557,0,0,0,.48-1.171v-3.811h-13.54v3.811a1.557,1.557,0,0,0,.48,1.171A1.676,1.676,0,0,0,163.949-863.667Zm5.078-13.067h0Z" transform="translate(8781.004 7971.669)" fill="#fff"/>
    <rect id="Rectangle_4668" data-name="Rectangle 4668" width="24" height="24" transform="translate(8938.014 7090.014)" fill="none"/>
  </g>
</svg>
