<svg width="38" height="38" viewBox="0 0 38 38" fill="none" xmlns="http://www.w3.org/2000/svg">
<g filter="url(#filter0_d_1604_25)">
<rect x="9" y="5" width="20" height="20" rx="6" fill="#42454E"/>
<rect x="9" y="5" width="20" height="20" rx="6" stroke="#8E8F95"/>
</g>
<path d="M14.875 13.125H16.4219C16.5045 13.4477 16.6921 13.7337 16.9552 13.9379C17.2183 14.1421 17.5419 14.253 17.875 14.253C18.2081 14.253 18.5317 14.1421 18.7948 13.9379C19.0579 13.7337 19.2455 13.4477 19.3281 13.125H23.125C23.2245 13.125 23.3198 13.0855 23.3902 13.0152C23.4605 12.9449 23.5 12.8495 23.5 12.75C23.5 12.6506 23.4605 12.5552 23.3902 12.4848C23.3198 12.4145 23.2245 12.375 23.125 12.375H19.3281C19.2455 12.0524 19.0579 11.7664 18.7948 11.5621C18.5317 11.3579 18.2081 11.2471 17.875 11.2471C17.5419 11.2471 17.2183 11.3579 16.9552 11.5621C16.6921 11.7664 16.5045 12.0524 16.4219 12.375H14.875C14.7755 12.375 14.6802 12.4145 14.6098 12.4848C14.5395 12.5552 14.5 12.6506 14.5 12.75C14.5 12.8495 14.5395 12.9449 14.6098 13.0152C14.6802 13.0855 14.7755 13.125 14.875 13.125ZM17.875 12C18.0233 12 18.1683 12.044 18.2917 12.1264C18.415 12.2088 18.5111 12.326 18.5679 12.463C18.6247 12.6 18.6395 12.7508 18.6106 12.8963C18.5817 13.0418 18.5102 13.1755 18.4053 13.2803C18.3004 13.3852 18.1668 13.4567 18.0213 13.4856C17.8758 13.5145 17.725 13.4997 17.588 13.4429C17.4509 13.3862 17.3338 13.29 17.2514 13.1667C17.169 13.0434 17.125 12.8983 17.125 12.75C17.125 12.5511 17.204 12.3603 17.3447 12.2197C17.4853 12.079 17.6761 12 17.875 12ZM23.125 16.875H22.3281C22.2455 16.5524 22.0579 16.2664 21.7948 16.0621C21.5317 15.8579 21.2081 15.7471 20.875 15.7471C20.5419 15.7471 20.2183 15.8579 19.9552 16.0621C19.6921 16.2664 19.5045 16.5524 19.4219 16.875H14.875C14.7755 16.875 14.6802 16.9145 14.6098 16.9848C14.5395 17.0552 14.5 17.1506 14.5 17.25C14.5 17.3495 14.5395 17.4449 14.6098 17.5152C14.6802 17.5855 14.7755 17.625 14.875 17.625H19.4219C19.5045 17.9477 19.6921 18.2337 19.9552 18.4379C20.2183 18.6421 20.5419 18.753 20.875 18.753C21.2081 18.753 21.5317 18.6421 21.7948 18.4379C22.0579 18.2337 22.2455 17.9477 22.3281 17.625H23.125C23.2245 17.625 23.3198 17.5855 23.3902 17.5152C23.4605 17.4449 23.5 17.3495 23.5 17.25C23.5 17.1506 23.4605 17.0552 23.3902 16.9848C23.3198 16.9145 23.2245 16.875 23.125 16.875ZM20.875 18C20.7267 18 20.5817 17.956 20.4583 17.8736C20.335 17.7912 20.2389 17.6741 20.1821 17.537C20.1253 17.4 20.1105 17.2492 20.1394 17.1037C20.1683 16.9582 20.2398 16.8246 20.3447 16.7197C20.4496 16.6148 20.5832 16.5434 20.7287 16.5144C20.8742 16.4855 21.025 16.5003 21.162 16.5571C21.2991 16.6139 21.4162 16.71 21.4986 16.8333C21.581 16.9567 21.625 17.1017 21.625 17.25C21.625 17.4489 21.546 17.6397 21.4053 17.7803C21.2647 17.921 21.0739 18 20.875 18Z" fill="white"/>
<defs>
<filter id="filter0_d_1604_25" x="0.5" y="0.5" width="37" height="37" filterUnits="userSpaceOnUse" color-interpolation-filters="sRGB">
<feFlood flood-opacity="0" result="BackgroundImageFix"/>
<feColorMatrix in="SourceAlpha" type="matrix" values="0 0 0 0 0 0 0 0 0 0 0 0 0 0 0 0 0 0 127 0" result="hardAlpha"/>
<feOffset dy="4"/>
<feGaussianBlur stdDeviation="4"/>
<feComposite in2="hardAlpha" operator="out"/>
<feColorMatrix type="matrix" values="0 0 0 0 0 0 0 0 0 0 0 0 0 0 0 0 0 0 0.1 0"/>
<feBlend mode="normal" in2="BackgroundImageFix" result="effect1_dropShadow_1604_25"/>
<feBlend mode="normal" in="SourceGraphic" in2="effect1_dropShadow_1604_25" result="shape"/>
</filter>
</defs>
</svg>
