<svg id="Layer_1" data-name="Layer 1" xmlns="http://www.w3.org/2000/svg" viewBox="0 0 2488.15 687.17"><defs><style>.cls-1{fill:#fff;}.cls-2{fill:#eb2053;}</style></defs><title>SmartTruck-Logo</title><path class="cls-1" d="M2346.2,339.27c1.26-1.18,2.58-2.29,3.75-3.55q36-38.5,72.05-77c1.58-1.68,4.09-3.5,6.2-3.53,16.29-.3,32.59-.16,49.74-.16a26.57,26.57,0,0,1-2.45,3.65c-22.95,23.46-45.86,47-69,70.25-3.5,3.52-3.79,5.91-.88,10.06,24.3,34.63,48.35,69.43,72.46,104.19,1,1.45,1.93,3,3.36,5.2-2.22.19-3.59.4-5,.41-13.5,0-27-.1-40.49.09a8.25,8.25,0,0,1-7.78-4.06q-26.14-37.82-52.57-75.42c-.92-1.32-2-2.57-3.9-5.1-3.82,4.27-7.19,8.11-10.63,11.87-3,3.31-5.82,7-9.33,9.71-6.1,4.69-7.46,10.56-7.18,17.9.51,13.14,0,26.32.2,39.48.05,4-1.2,5.7-5.44,5.61-11-.21-22-.18-33,0-4,.06-5.66-1.19-5.66-5.42q.12-128.75,0-257.49c0-4.08,1.62-5.1,5.36-5,10.83.17,21.67.28,32.49,0,4.85-.14,6.28,1.48,6.26,6.26-.15,38.66-.09,77.33-.09,116V338.5Z"/><path class="cls-1" d="M1989.27,421.08c-4.86,5.14-9.41,10.63-14.63,15.37-27.82,25.24-84.48,21.91-104.44-16.56-6.43-12.41-9.11-25.75-9.2-39.5-.28-39.65-.18-79.3-.2-118.95,0-6,.56-6.46,6.69-6.45,10.33,0,20.67.21,31-.08,4.7-.13,6.4,1.24,6.37,6.17-.18,34.16-.13,68.31-.07,102.47,0,9.38,1.18,18.61,5.2,27.25,7.63,16.41,22.35,22.44,38.26,21.73,28.52-1.27,42.06-21.32,42.26-45.42.29-34.81.21-69.63.29-104.45,0-7.44.39-7.74,8-7.67q14.49.12,29,0c6.79,0,7,0,7,6.93q0,79.23-.11,158.45c0,7.83,0,15.66.14,23.49.07,3.6-1.29,5.06-5,5q-17.23-.24-34.49,0c-3.59.05-4.62-1.41-4.55-4.76.16-7.31,0-14.64,0-22Z"/><path class="cls-1" d="M1567.91,341V240c0-6.61-.4-7-7.17-7-22.84,0-45.67-.08-68.5.06-4,0-5.65-1-5.53-5.3.26-10.16.2-20.33,0-30.5-.07-3.71.79-5.32,5-5.31q99,.17,198,0c4,0,5.22,1.28,5.14,5.18q-.33,15.24,0,30.5c.1,4.15-1.32,5.46-5.45,5.43-22.67-.16-45.34-.08-68-.08-8.12,0-8.63.51-8.62,8.89q.1,99.24.23,198.49c0,8.5,0,8.5-8.49,8.5h-29c-7.61,0-7.61,0-7.61-7.86Z"/><path class="cls-2" d="M381.92,510.13c-1.23,7.52-4.2,12.82-10.47,15.88-6.49,3.18-12.88,2.83-18.79-1.61a39.29,39.29,0,0,1-4-3.71Q183.35,355.45,18.08,190.21c-4.28-4.28-7.61-8.79-7-15.25.59-6.8,3.44-12.13,9.86-15s12.62-2.61,18.31,1.83a61.28,61.28,0,0,1,5.51,5.06Q206.8,328.87,368.87,491c2.47,2.48,5.4,4.65,7.29,7.51C378.52,502.06,380,506.21,381.92,510.13Z"/><path class="cls-1" d="M2080.25,358c1.25-37.2,13-66.68,41.32-88.08,33.86-25.61,95.69-28.93,132.43,9.8,3,3.19,3.55,5.4.31,8.71-6.87,7-13.51,14.27-20.06,21.6-2.49,2.77-4.28,2.81-6.93.18-9.71-9.68-20.69-17-34.6-19.6-32.27-5.92-61.45,14.4-67,46.89-3.56,20.86-.49,40.14,13.26,56.92,17.16,21,47,26.78,71.47,13.42,6.64-3.62,12.59-8.64,18.41-13.56,3-2.55,4.83-3.17,7.8-.1,6.13,6.34,12.4,12.59,19,18.42,3.91,3.45,2.91,5.68-.17,8.85-19.61,20.21-43.21,31-71.55,31.52-50,.87-90.07-29.62-101.47-77.76C2081,368.77,2080.76,362.05,2080.25,358Z"/><path class="cls-1" d="M817.35,293.47c14.69-23.7,35-37.27,63.43-36.35s48.34,14.83,60.85,39.47c5.74-6.79,10.74-13.73,16.74-19.65,30.43-30,85.5-25.68,109.38,8.45,10.12,14.47,13.57,31.08,13.77,48.25.41,36.16.2,72.32.22,108.48,0,6.3-.46,6.71-6.93,6.71-1.5,0-3-.08-4.49-.13-4.55-.14-6.5-2.51-6.44-7,.11-7.67,0-15.33,0-23,0-29.16.23-58.32-.24-87.47-.27-17.38-5.84-33-18.8-45.34-20.77-19.76-69-18.7-88,18.39-5.73,11.23-8.08,23.21-8.11,35.69q-.09,51,0,102c0,3.61.46,7-5.07,7-9.77,0-11.91-.8-12-7-.2-19.82-.06-39.65-.19-59.48-.12-18.15.29-36.35-.82-54.44-1.35-22.05-9.89-40.54-31.39-50.1C869.81,264.75,834,279.94,822,311a80,80,0,0,0-5.1,26.22c-.79,30.79-.65,61.61-.86,92.42,0,3.17.21,6.35-.07,9.49s-.38,8.09-1.76,8.54c-3.91,1.25-8.44.78-12.69.53-.91,0-2.09-1.95-2.46-3.19a18.22,18.22,0,0,1-.22-5q0-85.49,0-171c0-6.51.8-7.54,5.69-7.55,10,0,11.36.8,11.48,7.46.11,6.33,0,12.67,0,19,0,1.58.22,3.17.34,4.76Z"/><path class="cls-1" d="M1756.79,294.43c2.37-3.8,4.68-7.63,7.11-11.39,12.23-19,29.37-29.94,52.06-31.81,7.65-.63,8-.31,8,7.14,0,11.5-.07,23,0,34.48,0,3.4-.76,5-4.7,5.19-35.68,1.31-59.8,24.18-62.51,60-1.2,15.73-1,31.58-1.15,47.39-.17,12.82-.13,25.65,0,38.47,0,3.61-1,5.07-4.82,5-11.65-.17-23.32-.14-35,0-3.31,0-4.48-1.28-4.38-4.42.12-3.66,0-7.33,0-11V262.09c0-7.21,0-7.14,7.18-7.11,10.49.06,21,.15,31.48-.06,4.09-.08,5.59,1.24,5.5,5.44-.23,11.26-.08,22.53-.08,33.8Z"/><path class="cls-1" d="M550.72,411.66l11.85-13.72c10,7.25,19.18,15.24,29.55,21.05,29.54,16.56,60.81,22.05,93.71,11,25.21-8.47,38.63-31,34.08-56.62-2.77-15.64-13.11-25-26.71-31.32-16.58-7.74-34.41-11.24-52.13-15.12A205.94,205.94,0,0,1,594,310.74c-41.51-20.34-42.13-76.1-10.91-102.08,15.41-12.82,33.43-19.08,53.21-20.29,33.68-2.06,64.32,6.33,91,27.5,1.28,1,2.5,2.13,4,3.42-3,3.72-6,7.05-8.46,10.73-2.31,3.42-4.25,3.26-7.19.76-10.91-9.26-23.07-16.51-36.83-20.54-22.69-6.65-45.52-8.52-68,1-20.34,8.59-31.56,24.77-31.08,45.12.38,16.17,7.44,28.76,21.85,36.77,17.11,9.5,35.87,14,54.78,18,17.26,3.71,34.06,8.69,50,16.61,45.55,22.57,41.63,85.28,2.84,109.59-17.55,11-36.72,15-57.12,14.9-37.72-.13-70.13-13.61-98.21-38.34A32.36,32.36,0,0,0,550.72,411.66Z"/><path class="cls-2" d="M217.46,673.76c-5.81.1-10.1-2.86-14-6.74q-20.29-20.32-40.63-40.63Q90.78,554.3,18.68,482.24c-5.9-5.89-9.62-12.41-6.81-21a17.64,17.64,0,0,1,26.54-8.85A40.14,40.14,0,0,1,43.67,457q92.23,92.21,184.44,184.43c7.66,7.66,9.16,13.84,5.53,21.9C230.48,670.33,224.9,673.47,217.46,673.76Z"/><path class="cls-2" d="M380.77,218.77c0,8.63-4.09,13.64-10.56,16.6s-12.75,1.86-18.19-2.72c-3.18-2.68-6.1-5.67-9-8.61Q253.9,135,164.85,45.92c-4.41-4.41-8.25-9.07-8.1-15.94.16-7.24,3.47-12.37,9.7-15.67s12.24-2.53,17.87,1.4a44.61,44.61,0,0,1,6,5.24q91.21,91.16,182.39,182.34C377.32,207.89,381,212.88,380.77,218.77Z"/><path class="cls-1" d="M1275.68,419.11l-8.07,8.56c-27.88,29.7-81.58,33.61-114.11,9.1-29.69-22.38-27-70.71,4-89.66,14.75-9,30.83-13.1,47.84-14a228.7,228.7,0,0,1,65.42,6.19c5.6,1.35,6,1,6-4.76.1-13.57-2.07-26.54-10.29-37.85-9.72-13.37-23.63-18.85-39.38-20.86-22.3-2.84-43.34,1.52-63.61,10.79-2.32,1.06-7,2-7.52,1.15a47,47,0,0,1-4.4-12.35c-.18-.77,2-2.57,3.39-3.19,29.12-12.86,59.18-18.08,90.47-9.65,29.86,8,47.75,31,48.09,62.18.44,39.65.14,79.31.29,119,0,4-1.41,5.53-5.26,5.09a20.67,20.67,0,0,0-2.49,0c-8.16,0-9.22-1-9.27-9.16,0-6.65,0-13.3,0-19.95Zm-64.13,18c13.7-.24,30.27-6.08,45-16.83,10.18-7.41,17.22-17.43,19.17-29.93,1.4-8.95.72-18.2,1.51-27.26.42-4.85-1.33-6.91-5.87-8-23.16-5.35-46.61-8.09-70.3-6a84.92,84.92,0,0,0-26.31,6.93c-15.34,6.72-23.66,19.34-23.87,36.16-.2,16.33,7.33,28.79,21.93,36.44C1183.43,434.21,1194.81,437.15,1211.55,437.13Z"/><path class="cls-2" d="M183.59,205c-3.91-2.21-8.55-3.69-11.63-6.73-27.52-27.13-54.78-54.52-82.07-81.87-7.88-7.91-8.24-18.55-1.07-25.79,7.31-7.4,17.74-7.43,25.81.44,13,12.67,25.75,25.61,38.56,38.47q21.87,21.93,43.67,43.95c5.58,5.64,7.2,12.16,4,19.64a17.27,17.27,0,0,1-16.56,10.67Z"/><path class="cls-1" d="M1377.81,311.39c1.54-2.45,3.11-4.89,4.64-7.36,12.56-20.39,29-36.06,52.79-42.3,6.38-1.67,13.1-2.07,19.68-3,3.3-.44,4.93.93,4.77,4.52s.17,7,.2,10.48c0,3.27-1.73,4.73-4.94,5-40.16,3-66.64,25.49-75.22,64.94-2.21,10.14-2.78,20.77-3,31.19-.4,22.66-.14,45.32,0,68,0,4.43-1.16,6.16-5.93,6.09-12.15-.18-12,.05-12-13.29q.08-83,0-166c0-1.5-.35-3.13.12-4.46s1.69-3.33,2.77-3.47a57.16,57.16,0,0,1,11.4-.29c4,.28,3.78,3.55,3.76,6.42-.09,12.83-.22,25.65-.31,38.48,0,1.57.15,3.14.23,4.71Z"/><path class="cls-2" d="M290.88,600.94c-5.39.16-9.76-2-13.44-5.71q-40.86-40.8-81.69-81.62c-5.35-5.33-7.41-11.56-5.35-18.64,1.95-6.72,6.81-10.91,13.78-12.35s12.23,1.62,16.94,6.34q29.65,29.73,59.37,59.41c7.77,7.78,15.78,15.35,23.15,23.49a17.35,17.35,0,0,1-8.36,28.38A37.68,37.68,0,0,1,290.88,600.94Z"/></svg>