<svg xmlns="http://www.w3.org/2000/svg" width="120.905" height="32.003" viewBox="0 0 120.905 32.003">
  <g id="smartruck_lite_logo" transform="translate(-24.961 -37.985)">
    <g id="Group_20132" data-name="Group 20132" transform="translate(24.961 37.985)">
      <path id="Path_4192" data-name="Path 4192" d="M20.179,33.084a.922.922,0,0,1-.484.764.818.818,0,0,1-.91-.077,1.738,1.738,0,0,1-.2-.178L2.513,17.662a.9.9,0,0,1-.344-.735.8.8,0,0,1,.484-.725.823.823,0,0,1,.885.086c.092.077.179.163.266.245L19.55,32.162a2.5,2.5,0,0,1,.353.36A4.659,4.659,0,0,1,20.179,33.084Z" transform="translate(-2.169 -9.026)" fill="#ff0054"/>
      <path id="Path_4197" data-name="Path 4197" d="M12.207,56.256a.91.91,0,0,1-.678-.324L9.553,53.956,2.546,46.949a.969.969,0,0,1-.334-1.022A.857.857,0,0,1,3.5,45.5a1.84,1.84,0,0,1,.257.223l8.983,8.964a.843.843,0,0,1,.266,1.065.818.818,0,0,1-.8.5Z" transform="translate(-2.172 -24.254)" fill="#ff0054"/>
      <path id="Path_4198" data-name="Path 4198" d="M27.686,11.519a.809.809,0,0,1-.513.8.789.789,0,0,1-.886-.131c-.155-.131-.3-.276-.436-.416L17.192,3.117a1.041,1.041,0,0,1-.392-.775.814.814,0,0,1,.484-.76.775.775,0,0,1,.867.068,2.082,2.082,0,0,1,.3.252l8.862,8.862a1.07,1.07,0,0,1,.378.755Z" transform="translate(-9.73 -1.48)" fill="#ff0054"/>
      <path id="Path_4200" data-name="Path 4200" d="M14.325,14.616a2.7,2.7,0,0,1-.567-.324c-1.337-1.317-2.663-2.649-3.99-3.981a.857.857,0,0,1-.039-1.254.847.847,0,0,1,1.254.024c.63.615,1.249,1.245,1.874,1.869l2.121,2.136a.809.809,0,0,1,.194.969.833.833,0,0,1-.8.518Z" transform="translate(-5.942 -5.251)" fill="#ff0054"/>
      <path id="Path_4202" data-name="Path 4202" d="M25.018,54.429a.852.852,0,0,1-.654-.271c-1.322-1.322-2.644-2.649-3.971-3.966a.877.877,0,0,1-.261-.906.828.828,0,0,1,.673-.6.862.862,0,0,1,.823.31L24.51,51.9c.378.378.77.746,1.128,1.143a.838.838,0,0,1-.407,1.375A1.506,1.506,0,0,1,25.018,54.429Z" transform="translate(-11.425 -25.967)" fill="#ff0054"/>
    </g>
    <g id="Group_20146" data-name="Group 20146" transform="translate(50.961 39.629)">
      <g id="Group_20132-2" data-name="Group 20132" transform="translate(0 0)">
        <path id="Path_4189" data-name="Path 4189" d="M234.185,26.232l.186-.172c1.182-1.265,2.359-2.53,3.545-3.79a.53.53,0,0,1,.3-.177h2.452a1.6,1.6,0,0,1-.123.181c-1.128,1.152-2.256,2.309-3.393,3.457a.319.319,0,0,0-.044.49c1.2,1.7,2.378,3.432,3.565,5.124l.167.255h-2.236a.412.412,0,0,1-.383-.2c-.858-1.241-1.726-2.452-2.589-3.712-.044-.064-.1-.127-.191-.25l-.544.608a3.523,3.523,0,0,1-.461.49.981.981,0,0,0-.353.883c.025.647,0,1.294,0,1.961,0,.2-.059.279-.265.275H232.2c-.2,0-.279-.059-.279-.265V18.72c0-.2.078-.255.265-.25h1.6c.24,0,.309.069.309.3v7.448Z" transform="translate(-145.939 -18.469)" fill="#fcfcfc"/>
        <path id="Path_4190" data-name="Path 4190" d="M194.16,33.993c-.24.255-.461.525-.721.755a3.447,3.447,0,0,1-5.139-.814,4.123,4.123,0,0,1-.451-1.961V26.119c0-.294,0-.319.328-.319H189.7c.231,0,.314.064.314.3V31.15a3.134,3.134,0,0,0,.255,1.339,1.849,1.849,0,0,0,1.883,1.069,2.069,2.069,0,0,0,2.079-2.231V26.182c0-.363,0-.378.392-.378h1.427c.338,0,.343,0,.343.343V35.1c0,.177-.064.25-.245.245h-1.7c-.177,0-.226-.069-.221-.23V34.033Z" transform="translate(-123.45 -22.217)" fill="#fcfcfc"/>
        <path id="Path_4191" data-name="Path 4191" d="M154.276,26.84V21.873c0-.329,0-.348-.353-.348h-3.374c-.2,0-.275-.049-.27-.26V19.76c0-.181.039-.26.245-.26h9.743c.2,0,.26.064.255.255v1.5c0,.206-.069.27-.27.27h-3.344c-.4,0-.427.025-.427.436v9.767c0,.422,0,.422-.417.422h-1.427c-.373,0-.373,0-.373-.387Z" transform="translate(-104.279 -18.997)" fill="#fcfcfc"/>
        <path id="Path_4193" data-name="Path 4193" d="M209.85,30.689a5.274,5.274,0,0,1,2.035-4.335,5.1,5.1,0,0,1,6.517.49c.147.157.176.27,0,.431-.338.343-.667.7-.981,1.064-.123.132-.211.137-.343,0a3.172,3.172,0,0,0-1.7-.981,2.77,2.77,0,0,0-3.3,2.3,3.319,3.319,0,0,0,.652,2.8,2.8,2.8,0,0,0,3.516.657,5.4,5.4,0,0,0,.907-.667c.147-.123.235-.157.382,0,.3.314.613.618.937.907.191.172.142.279,0,.436a5.026,5.026,0,0,1-8.512-2.275A6.381,6.381,0,0,1,209.85,30.689Z" transform="translate(-134.691 -22.017)" fill="#fcfcfc"/>
        <path id="Path_4194" data-name="Path 4194" d="M82.173,27.828a3.369,3.369,0,0,1,3.119-1.785,3.28,3.28,0,0,1,3,1.961c.284-.333.53-.677.824-.981a3.658,3.658,0,0,1,5.394.412,4.109,4.109,0,0,1,.677,2.378v5.335c0,.314,0,.333-.338.333h-.221c-.226,0-.324-.123-.319-.343V29.7a3.035,3.035,0,0,0-.927-2.231,2.873,2.873,0,0,0-4.33.907,3.82,3.82,0,0,0-.4,1.755v5.016c0,.181,0,.348-.25.348-.49,0-.588-.039-.588-.348V32.207c0-.892,0-1.79-.039-2.677a2.648,2.648,0,0,0-1.549-2.452,2.883,2.883,0,0,0-3.805,1.628A3.889,3.889,0,0,0,82.168,30c-.044,1.5-.044,3.016-.044,4.531v.49c0,.177,0,.4-.088.417a1.78,1.78,0,0,1-.628.029c-.044,0-.1-.1-.118-.162a.784.784,0,0,1,0-.24V26.652c0-.324.039-.373.28-.373.49,0,.559.039.564.368s0,.623,0,.937v.23Z" transform="translate(-69.069 -22.333)" fill="#fcfcfc"/>
        <path id="Path_4195" data-name="Path 4195" d="M175.061,27.582c.113-.186.23-.378.348-.559a3.217,3.217,0,0,1,2.56-1.564c.378-.034.4,0,.4.348v1.7c0,.167-.039.25-.235.255a3.02,3.02,0,0,0-3.074,2.942c-.059.775-.049,1.554-.059,2.334v1.893c0,.177-.054.25-.24.245h-1.721c-.162,0-.221-.064-.216-.216s0-.363,0-.539V25.989c0-.353,0-.348.353-.348h1.549c.2,0,.275.059.27.265v1.662Z" transform="translate(-115.777 -22.037)" fill="#fcfcfc"/>
        <path id="Path_4196" data-name="Path 4196" d="M56.34,30.14l.583-.677A14.868,14.868,0,0,0,58.394,30.5a5.516,5.516,0,0,0,4.614.544,2.408,2.408,0,0,0,1.677-2.79,2.084,2.084,0,0,0-1.314-1.54,12.087,12.087,0,0,0-2.564-.745,10.209,10.209,0,0,1-2.319-.794,3.044,3.044,0,0,1-.534-5.026,4.413,4.413,0,0,1,2.618-.981,6.33,6.33,0,0,1,4.482,1.353l.2.167c-.147.181-.294.348-.417.53s-.211.157-.353.034a4.948,4.948,0,0,0-1.814-1.01,4.84,4.84,0,0,0-3.344.049,2.285,2.285,0,0,0-1.549,2.216,2.01,2.01,0,0,0,1.074,1.809,9.68,9.68,0,0,0,2.721.878,10.434,10.434,0,0,1,2.452.814,3.117,3.117,0,0,1,.142,5.394,5.08,5.08,0,0,1-2.814.735,7.154,7.154,0,0,1-4.83-1.888A1.842,1.842,0,0,0,56.34,30.14Z" transform="translate(-56.34 -18.814)" fill="#fcfcfc"/>
        <path id="Path_4199" data-name="Path 4199" d="M121.784,34.088l-.4.422a4.452,4.452,0,0,1-5.614.451,2.736,2.736,0,0,1,.191-4.413,4.84,4.84,0,0,1,2.358-.686,11.116,11.116,0,0,1,3.217.3c.275.064.3.049.3-.235a3.031,3.031,0,0,0-.49-1.863,2.653,2.653,0,0,0-1.961-1.025,5.649,5.649,0,0,0-3.123.52c-.113.054-.348.1-.373.059a2.638,2.638,0,0,1-.216-.608c0-.039.1-.128.167-.157a6.536,6.536,0,0,1,4.452-.49,3.045,3.045,0,0,1,2.368,3.06v5.855c0,.2-.069.27-.26.25h-.123c-.4,0-.451-.054-.456-.451V34.1Zm-3.158.888a4.04,4.04,0,0,0,2.216-.829,2.241,2.241,0,0,0,.946-1.471c.069-.441.034-.9.074-1.344a.314.314,0,0,0-.289-.387,10.989,10.989,0,0,0-3.462-.3,4.149,4.149,0,0,0-1.28.348,1.854,1.854,0,0,0-1.172,1.78,1.878,1.878,0,0,0,1.079,1.79,3.776,3.776,0,0,0,1.888.412Z" transform="translate(-86.144 -22.41)" fill="#fcfcfc"/>
        <path id="Path_4201" data-name="Path 4201" d="M138.369,28.809l.226-.363a4.359,4.359,0,0,1,2.6-2.079,7.993,7.993,0,0,1,.981-.147c.162,0,.24.049.235.226s0,.343,0,.515-.088.23-.245.245a3.8,3.8,0,0,0-3.7,3.192,8.068,8.068,0,0,0-.147,1.54v3.344c0,.216-.059.3-.294.3-.593,0-.588,0-.588-.652V26.759a.826.826,0,0,1,0-.221.219.219,0,0,1,.137-.172,3.1,3.1,0,0,1,.564,0c.191,0,.186.177.181.319v2.123Z" transform="translate(-97.715 -22.431)" fill="#fcfcfc"/>
      </g>
      <text id="Shipper_lite" data-name="Shipper lite" transform="translate(0 26.32)" fill="rgba(255,255,255,0.6)" font-size="10" font-family="ProximaNova-Semibold, Proxima Nova" font-weight="600"><tspan x="0" y="0">Shipper </tspan><tspan y="0" font-family="ProximaNova-SemiboldIt, Proxima Nova" font-style="italic">LITE</tspan></text>
    </g>
  </g>
</svg>
