<svg xmlns="http://www.w3.org/2000/svg" xmlns:xlink="http://www.w3.org/1999/xlink" width="25" height="25" viewBox="0 0 25 25">
  <defs>
    <clipPath id="clip-Spot_Driver">
      <rect width="25" height="25"/>
    </clipPath>
  </defs>
  <g id="Spot_Driver" data-name="Spot Driver" clip-path="url(#clip-Spot_Driver)">
    <g id="Group_3796" data-name="Group 3796" transform="translate(-127.666 -550.1)">
      <g id="Group_3792" data-name="Group 3792" transform="translate(130 552.315)">
        <path id="Path_1486" data-name="Path 1486" d="M262.338,218.161c.045-.308.106-.608.131-.911a5.523,5.523,0,0,0-1.248-4.075,5.891,5.891,0,0,0-3.631-2.125,6.22,6.22,0,0,0-1.865-.038,5.917,5.917,0,0,0-4.94,4.191,5.622,5.622,0,0,0-.063,2.859c.007.031.013.062.022.107h-.215c-.437,0-.874,0-1.312,0a.152.152,0,0,1-.166-.1c-.38-.858-.765-1.714-1.144-2.573a.186.186,0,0,1,.015-.15q2.022-3.172,4.048-6.34a.408.408,0,0,1,.21-.172A13.733,13.733,0,0,1,255.2,208a9.687,9.687,0,0,1,3.458.14,14.567,14.567,0,0,1,2.264.706.346.346,0,0,1,.153.127q2.037,3.177,4.069,6.356a.164.164,0,0,1,.015.178c-.383.852-.763,1.706-1.147,2.558-.019.042-.075.1-.114.1-.507.008-1.013.007-1.52.008A.149.149,0,0,1,262.338,218.161Z" transform="translate(-247.898 -200.551)" fill="#104ab3"/>
        <path id="Path_1487" data-name="Path 1487" d="M376.414,357.183a5.631,5.631,0,0,1-5.2-3.376,5.351,5.351,0,0,1,1.756-6.387,5.738,5.738,0,0,1,7.839.918,5.36,5.36,0,0,1-1.584,8.11A5.738,5.738,0,0,1,376.414,357.183Zm-4.283-3.764a.4.4,0,0,0,.049-.015q1.522-.853,3.043-1.709a.193.193,0,0,0,.076-.124,1.05,1.05,0,0,1,.41-.687.2.2,0,0,0,.084-.186q0-1.63,0-3.26v-.15a4.564,4.564,0,0,0-3.384,2.228A4.3,4.3,0,0,0,372.132,353.418Zm8.557.011a4.33,4.33,0,0,0-.328-4,4.552,4.552,0,0,0-3.325-2.138c0,.05-.008.081-.008.113,0,1.107,0,2.215,0,3.322a.22.22,0,0,0,.076.147,1.137,1.137,0,0,1,.417.7.238.238,0,0,0,.109.141c.746.423,1.495.841,2.243,1.26Zm-.64,1.041c-.02-.014-.032-.025-.046-.033q-1.511-.847-3.024-1.691a.2.2,0,0,0-.145,0,1.226,1.226,0,0,1-.84,0,.244.244,0,0,0-.177.016q-1.472.818-2.939,1.644c-.035.02-.069.041-.1.062A4.684,4.684,0,0,0,380.049,354.471Z" transform="translate(-367.777 -335.532)" fill="#104ab3"/>
        <path id="Path_1488" data-name="Path 1488" d="M482.6-89.036a2.992,2.992,0,0,1-2.138,2.8,3.069,3.069,0,0,1-3.412-1.143,2.878,2.878,0,0,1,.624-3.96,3.057,3.057,0,0,1,4.8,1.565A7.4,7.4,0,0,1,482.6-89.036Z" transform="translate(-470.917 91.97)" fill="#104ab3"/>
      </g>
      <g id="Group_3793" data-name="Group 3793" transform="translate(144.143 550.9)">
        <path id="Path_1489" data-name="Path 1489" d="M478.331,162.908h-1.684a.256.256,0,0,1-.269-.366q.692-2.227,1.387-4.453a.259.259,0,0,1,.294-.215h2.407c.268,0,.367.137.289.4L480,160.787c-.009.03-.016.06-.029.109h.131c.629,0,1.258,0,1.888,0a.262.262,0,0,1,.212.46q-2.223,2.715-4.446,5.431a.443.443,0,0,1-.179.144.249.249,0,0,1-.3-.332c.07-.258.147-.513.221-.77q.4-1.4.8-2.8C478.313,162.994,478.319,162.956,478.331,162.908Z" transform="translate(-476.357 -157.874)" fill="#104ab3"/>
      </g>
    </g>
  </g>
</svg>
