<svg xmlns="http://www.w3.org/2000/svg" width="24" height="24" viewBox="0 0 24 24">
  <g id="station_management_inactive_icon" transform="translate(2297 -1479)">
    <path id="Path_17127" data-name="Path 17127" d="M0,0H24V24H0Z" transform="translate(-2297 1479)" fill="none"/>
    <g id="Group_21501" data-name="Group 21501">
      <path id="train_FILL0_wght400_GRAD0_opsz24" d="M160-871.858v-5.73a1.827,1.827,0,0,1,.43-1.274,2.712,2.712,0,0,1,1.133-.724,6.623,6.623,0,0,1,1.6-.332q.9-.083,1.836-.083,1.031,0,1.945.083a6.3,6.3,0,0,1,1.594.332,2.428,2.428,0,0,1,1.07.724,1.944,1.944,0,0,1,.391,1.274v5.73a2,2,0,0,1-.633,1.5,2.154,2.154,0,0,1-1.555.611l.938.9v.3H167.5l-1.25-1.206h-2.5l-1.25,1.206h-1.25v-.3l.938-.9a2.154,2.154,0,0,1-1.555-.611A2,2,0,0,1,160-871.858Zm5-6.936a11.139,11.139,0,0,0-2.422.188,2.886,2.886,0,0,0-1.047.415h7a2.033,2.033,0,0,0-1.008-.43A12.9,12.9,0,0,0,165-878.794Zm-3.75,3.619h3.125v-1.809H161.25Zm6.563,1.206h0Zm-2.188-1.206h3.125v-1.809h-3.125Zm-2.813,3.619a.929.929,0,0,0,.672-.256.863.863,0,0,0,.266-.648.863.863,0,0,0-.266-.648.929.929,0,0,0-.672-.256.929.929,0,0,0-.672.256.863.863,0,0,0-.266.648.863.863,0,0,0,.266.648A.929.929,0,0,0,162.812-871.556Zm4.375,0a.929.929,0,0,0,.672-.256.863.863,0,0,0,.266-.648.863.863,0,0,0-.266-.648.929.929,0,0,0-.672-.256.928.928,0,0,0-.672.256.863.863,0,0,0-.266.648.863.863,0,0,0,.266.648A.929.929,0,0,0,167.188-871.556Zm-5,.6h5.625a.928.928,0,0,0,.672-.256.863.863,0,0,0,.266-.648v-2.111h-7.5v2.111a.863.863,0,0,0,.266.648A.928.928,0,0,0,162.188-870.953ZM165-878.191h0Z" transform="translate(-2445 2369.5)" fill="#fff" stroke="#fff" stroke-width="0.2"/>
      <path id="Path_17128" data-name="Path 17128" d="M12,23.25H7.5a3.164,3.164,0,0,1-3.25-3.062V6.312A3.164,3.164,0,0,1,7.5,3.25h10a3.164,3.164,0,0,1,3.25,3.062V8.747a.75.75,0,0,1-1.5,0V6.312A1.666,1.666,0,0,0,17.5,4.75H7.5A1.666,1.666,0,0,0,5.75,6.312V20.188A1.666,1.666,0,0,0,7.5,21.75H12a.75.75,0,0,1,0,1.5Z" transform="translate(-2299.25 1477.75)" fill="#fff" stroke="#fff" stroke-linecap="round" stroke-width="0.7"/>
      <path id="Path_17130" data-name="Path 17130" d="M14,8.75H9a.75.75,0,0,1,0-1.5h5a.75.75,0,0,1,0,1.5Z" transform="translate(-2300 1479)" fill="#fff" stroke="#fff" stroke-linecap="round" stroke-width="0.7"/>
      <path id="Path_17131" data-name="Path 17131" d="M11.5,12.75H9a.75.75,0,0,1,0-1.5h2.5a.75.75,0,0,1,0,1.5Z" transform="translate(-2300 1479)" fill="#fff" stroke="#fff" stroke-linecap="round" stroke-width="0.7"/>
    </g>
  </g>
</svg>
