<svg xmlns="http://www.w3.org/2000/svg" width="24" height="24" viewBox="0 0 24 24">
  <g id="toll_gate_icon" transform="translate(-400.471 -226.471)">
    <rect id="Rectangle_4161" data-name="Rectangle 4161" width="24" height="24" transform="translate(400.471 226.471)" fill="none"/>
    <g id="Group_19675" data-name="Group 19675" transform="translate(402.496 228.897)">
      <g id="Group_19674" data-name="Group 19674">
        <g id="Group_19670" data-name="Group 19670">
          <g id="Path_16481" data-name="Path 16481" transform="translate(-6546.806 -3309.454)" fill="#fff">
            <path d="M 6550.9150390625 3314.3115234375 L 6547.18017578125 3312.125244140625 L 6550.763671875 3309.694580078125 L 6554.544921875 3312.181396484375 L 6550.9150390625 3314.3115234375 Z" stroke="none"/>
            <path d="M 6550.9150390625 3314.079833984375 L 6554.16650390625 3312.171875 L 6550.76513671875 3309.93505859375 L 6547.5546875 3312.11279296875 L 6550.9150390625 3314.079833984375 M 6550.9150390625 3314.54345703125 L 6546.8056640625 3312.1376953125 L 6550.76171875 3309.4541015625 L 6554.923828125 3312.191162109375 L 6550.9150390625 3314.54345703125 Z" stroke="none" fill="#131722"/>
          </g>
          <path id="Path_16482" data-name="Path 16482" d="M6546.8,3310.4v14l4.041,2.421v-14.061Z" transform="translate(-6546.776 -3307.668)" fill="#f51422" stroke="#131722" stroke-width="0.1"/>
          <g id="Path_16483" data-name="Path 16483" transform="translate(-6542.717 -3307.668)" fill="#fff">
            <path d="M 6547.0029296875 3326.464599609375 L 6547.0029296875 3312.871337890625 L 6550.6435546875 3310.746337890625 L 6550.6435546875 3324.282958984375 L 6547.0029296875 3326.464599609375 Z" stroke="none"/>
            <path d="M 6550.44384765625 3311.094482421875 L 6547.20263671875 3312.986328125 L 6547.20263671875 3326.111572265625 L 6550.44384765625 3324.169677734375 L 6550.44384765625 3311.094482421875 M 6550.84375 3310.39794921875 L 6550.84375 3324.396240234375 L 6546.802734375 3326.817626953125 L 6546.802734375 3312.756591796875 L 6550.84375 3310.39794921875 Z" stroke="none" fill="#131722"/>
          </g>
        </g>
        <g id="Group_19673" data-name="Group 19673" transform="translate(4.802 0.938)">
          <path id="Path_16485" data-name="Path 16485" d="M6549.705,3316.7l14.923-9.246v.276l-.589,1.069-13.983,8.692Z" transform="translate(-6549.456 -3307.238)" fill="#de334f"/>
          <path id="Path_16486" data-name="Path 16486" d="M6549.81,3316.778l14.9-9.247-.337-.2-14.817,9.223Z" transform="translate(-6549.559 -3307.329)" fill="#131722" stroke="#131722" stroke-width="0.05"/>
        </g>
        <g id="Group_19672" data-name="Group 19672" transform="translate(4.208 7.949)">
          <g id="Group_19671" data-name="Group 19671" transform="translate(0.261 0.287)">
            <g id="Group_19399" data-name="Group 19399" transform="translate(0 0)">
              <path id="Path_16379" data-name="Path 16379" d="M459.4,117.967a.989.989,0,0,1,.969-.107c.007,0,.366.2.377.221a.936.936,0,0,0-1.052.054,3.058,3.058,0,0,0-1.388,2.394.953.953,0,0,0,.422.9.313.313,0,0,1-.068-.03l-.259-.157a.974.974,0,0,1-.389-.881A3.058,3.058,0,0,1,459.4,117.967Z" transform="translate(-457.986 -117.751)" fill="#131722"/>
              <path id="Path_16380" data-name="Path 16380" d="M458.377,121.1a.025.025,0,0,0,.012-.047.929.929,0,0,1-.409-.878,3.034,3.034,0,0,1,1.375-2.372,1.235,1.235,0,0,1,.61-.187.693.693,0,0,1,.336.082l.051.031.027.019a.025.025,0,0,0,.032,0,.025.025,0,0,0,0-.032c0-.005-.008-.01-.036-.028s-.035-.022-.054-.033c-.108-.064-.29-.166-.3-.17a.742.742,0,0,0-.358-.087,1.285,1.285,0,0,0-.635.194,3.09,3.09,0,0,0-1.4,2.415,1,1,0,0,0,.4.9l.26.157a.337.337,0,0,0,.073.032Zm1.588-3.534a1.284,1.284,0,0,0-.635.194,3.09,3.09,0,0,0-1.4,2.415,1.16,1.16,0,0,0,.221.745l-.089-.054a.953.953,0,0,1-.377-.86,3.034,3.034,0,0,1,1.375-2.372,1.236,1.236,0,0,1,.61-.187.692.692,0,0,1,.334.08l.083.046A.829.829,0,0,0,459.965,117.569Z" transform="translate(-457.636 -117.401)" fill="#131722"/>
            </g>
          </g>
          <path id="Path_16484" data-name="Path 16484" d="M1.129,3.913c.624,0,1.129-.876,1.129-1.956S1.753,0,1.129,0,0,.876,0,1.956.506,3.913,1.129,3.913Z" transform="matrix(-0.863, -0.505, 0.505, -0.863, 1.95, 4.518)" fill="#ffd600"/>
        </g>
      </g>
      <path id="Path_16487" data-name="Path 16487" d="M-.012-.021.856-.5.595.718l-.882.489Z" transform="translate(9.458 7.644)" fill="#fff"/>
      <path id="Path_16488" data-name="Path 16488" d="M-.012-.021.856-.5.595.718l-.882.489Z" transform="translate(12.323 5.897)" fill="#fff"/>
      <path id="Path_16489" data-name="Path 16489" d="M-.012-.021.856-.5.595.718l-.882.489Z" transform="translate(15.189 4.073)" fill="#fff"/>
      <path id="Path_16490" data-name="Path 16490" d="M-.012-.021.856-.5.595.718l-.882.489Z" transform="translate(18.052 2.33)" fill="#fff"/>
    </g>
  </g>
</svg>