<svg id="total_rakes" xmlns="http://www.w3.org/2000/svg" width="24" height="24" viewBox="0 0 24 24">
  <g id="train_737096_1_" data-name="train_737096 (1)" transform="translate(4.293 1.998)">
    <path id="Path_16968" data-name="Path 16968" d="M62.218,21c-.691,0-1.382,0-2.1-.011a.149.149,0,0,1,.035-.126q.735-.817,1.473-1.631c.438-.481.882-.956,1.319-1.438.19-.21.371-.429.572-.661h-.691a3.99,3.99,0,0,1-.721-.008,2.328,2.328,0,0,1-1.423-.812,2.117,2.117,0,0,1-.53-1.346q-.006-4.609,0-9.218a3.629,3.629,0,0,1,.044-.731,6.571,6.571,0,0,1,.326-1.193,4.617,4.617,0,0,1,2.957-2.634c.257-.069.516-.13.774-.195,2.358,0,4.716,0,7.1.015.1.019.182.011.257.027a5.145,5.145,0,0,1,1.907.816A4.572,4.572,0,0,1,74.9,3.432a4.753,4.753,0,0,1,.566,2.334c-.015,3-.01,6,0,9A2.289,2.289,0,0,1,75,16.218a2.19,2.19,0,0,1-1.736.915c-.38.013-.761,0-1.183,0,.3.327.575.621.844.92.55.611,1.094,1.226,1.644,1.837.293.325.593.644.886.969A.4.4,0,0,1,75.5,21c-.691,0-1.382,0-2.094-.013-.24-.249-.471-.475-.676-.724s-.382-.472-.743-.4a1.2,1.2,0,0,1-.234,0q-4.168,0-8.336,0a.358.358,0,0,0-.238.078c-.328.344-.643.7-.963,1.051m11.207-5.522a2.222,2.222,0,0,0,.276-.222.93.93,0,0,0,.2-.657c.005-.97,0-1.94,0-2.91v-.908c-.3.021-.594.058-.885.058q-5.176.006-10.352,0c-.316,0-.632-.036-.953-.055,0,1.274,0,2.589,0,3.9a1.044,1.044,0,0,0,.076.367.832.832,0,0,0,.868.512q5.146.006,10.293,0a2.376,2.376,0,0,0,.475-.088m-9.9-9.794c-.293,0-.586-.008-.879,0a1.357,1.357,0,0,0-.425.077.824.824,0,0,0-.51.849c-.01.579-.008,1.159,0,1.738a1.2,1.2,0,0,0,.08.424.843.843,0,0,0,.877.5c1.406.005,2.812,0,4.218,0,.056,0,.112-.006.163-.009V5.688H63.527M73.9,8.167c0-.514.009-1.029,0-1.543a.807.807,0,0,0-.388-.79,1.383,1.383,0,0,0-.58-.14c-1.373-.012-2.747-.006-4.12-.006h-.174V9.262c.014.011.019.018.023.018,1.452,0,2.9.009,4.355,0a.77.77,0,0,0,.81-.53,3.222,3.222,0,0,0,.077-.581M65.4,4.126H73.43a2.853,2.853,0,0,0-1.092-1.11,3.329,3.329,0,0,0-1.8-.45c-1.956,0-3.911.024-5.866.034a2.291,2.291,0,0,0-1.092.268,5.718,5.718,0,0,0-.937.631,3.924,3.924,0,0,0-.5.626H65.4m3.79,14.183h1.777c-.052-.065-.071-.09-.091-.113-.232-.258-.455-.524-.7-.768-.119-.12-.2-.3-.424-.3-1.3.008-2.6,0-3.9.008a.355.355,0,0,0-.231.1c-.317.329-.623.668-.931,1.005-.009.01,0,.035,0,.067Z" transform="translate(-60.113 -1)" fill="#334ffc"/>
    <path id="Path_16971" data-name="Path 16971" d="M114.469,484.744c.3-.353.616-.71.943-1.056a.356.356,0,0,1,.238-.079q4.162-.006,8.323,0a1.191,1.191,0,0,0,.233,0c.361-.074.545.159.742.4s.435.477.656.727Q120.048,484.75,114.469,484.744Z" transform="translate(-112.337 -464.74)" fill="#fff"/>
    <path id="Path_16972" data-name="Path 16972" d="M112.68,256.165a2.475,2.475,0,0,1-.46.082q-5.141.006-10.282,0a.83.83,0,0,1-.867-.514,1.054,1.054,0,0,1-.076-.368c-.005-1.32,0-2.64,0-3.919.32.019.636.055.952.055q5.17.006,10.341,0c.291,0,.582-.038.884-.058v.912c0,.974,0,1.948,0,2.922a.936.936,0,0,1-.2.659,1.993,1.993,0,0,1-.29.229M104,254.344a.864.864,0,0,0-.094-1.023.83.83,0,0,0-.887-.163.675.675,0,0,0-.463.592.782.782,0,0,0,.376.85.847.847,0,0,0,1.068-.256m6.4.245a.851.851,0,0,0,1.018-.14.832.832,0,0,0,.119-.911.722.722,0,0,0-.733-.431.734.734,0,0,0-.738.554A.816.816,0,0,0,110.4,254.589Z" transform="translate(-99.388 -241.67)" fill="#fff"/>
    <path id="Path_16973" data-name="Path 16973" d="M102.746,120.932h3.518v3.6c-.051,0-.107.009-.163.009-1.412,0-2.823,0-4.235,0a.846.846,0,0,1-.88-.5,1.206,1.206,0,0,1-.08-.426c-.009-.581-.011-1.163,0-1.745a.827.827,0,0,1,.512-.852,1.362,1.362,0,0,1,.427-.078C102.138,120.924,102.433,120.932,102.746,120.932Z" transform="translate(-99.302 -116.248)" fill="#fff"/>
    <path id="Path_16974" data-name="Path 16974" d="M283.507,123.476a3.264,3.264,0,0,1-.078.564.774.774,0,0,1-.813.532c-1.457.011-2.915,0-4.372,0,0,0-.01-.007-.024-.018v-3.588h.175c1.379,0,2.758-.005,4.137.006a1.388,1.388,0,0,1,.582.14.81.81,0,0,1,.39.793C283.516,122.424,283.507,122.94,283.507,123.476Z" transform="translate(-269.724 -116.284)" fill="#fff"/>
    <path id="Path_16975" data-name="Path 16975" d="M115.423,42.652h-3.231a3.937,3.937,0,0,1,.5-.628,5.708,5.708,0,0,1,.936-.634,2.278,2.278,0,0,1,1.091-.269c1.953-.01,3.905-.031,5.858-.034a3.311,3.311,0,0,1,1.8.452,2.856,2.856,0,0,1,1.091,1.114Z" transform="translate(-110.15 -39.515)" fill="#fff"/>
    <path id="Path_16976" data-name="Path 16976" d="M181.649,415.076h-4.5c0-.032-.005-.057,0-.068.309-.338.617-.679.934-1.009a.357.357,0,0,1,.232-.1c1.306-.006,2.611,0,3.917-.008.228,0,.306.176.426.3.246.246.47.513.7.771.021.023.039.048.091.113Z" transform="translate(-172.584 -397.779)" fill="#fff"/>
    <path id="Path_16977" data-name="Path 16977" d="M142.28,294.894a.848.848,0,0,1-1.063.245.78.78,0,0,1-.377-.85.675.675,0,0,1,.466-.592.837.837,0,0,1,.891.163A.86.86,0,0,1,142.28,294.894Z" transform="translate(-137.678 -282.208)" fill="#334ffc"/>
    <path id="Path_16978" data-name="Path 16978" d="M333.158,295.348a.8.8,0,0,1-.325-.917.737.737,0,0,1,.742-.553.726.726,0,0,1,.736.431.829.829,0,0,1-.119.911A.854.854,0,0,1,333.158,295.348Z" transform="translate(-322.153 -282.439)" fill="#334ffc"/>
  </g>
  <rect id="Rectangle_4969" data-name="Rectangle 4969" width="24" height="24" fill="none"/>
</svg>
