<svg xmlns="http://www.w3.org/2000/svg" xmlns:xlink="http://www.w3.org/1999/xlink" fill="none" version="1.1" width="30" height="30" viewBox="0 0 30 30"><defs><clipPath id="master_svg0_1_155"><rect x="0" y="0" width="30" height="30" rx="0"/></clipPath></defs><g clip-path="url(#master_svg0_1_155)"><g transform="matrix(1,0,0,-1,0,61.2890625)"><g><path d="M15,60.64453125Q19.1016,60.58593125,22.5,58.65233125Q25.8984,56.66013125,28.0078,53.14453125Q30,49.570331249999995,30,45.64453125Q30,41.71873125,28.0078,38.14453125Q25.8984,34.62891125,22.5,32.63672125Q19.1016,30.70312505,15,30.64453125Q10.8984,30.70312505,7.5,32.63672125Q4.10156,34.62891125,1.99219,38.14453125Q0,41.71873125,0,45.64453125Q0,49.570331249999995,1.99219,53.14453125Q4.10156,56.66013125,7.5,58.65233125Q10.8984,60.58593125,15,60.64453125ZM13.5938,53.61333125L13.5938,45.64453125L13.5938,53.61333125L13.5938,45.64453125Q13.5938,44.88283125,14.2383,44.47263125L19.8633,40.72263125Q20.9766,40.07812125,21.7969,41.13283125Q22.4414,42.24613125,21.3867,43.06643125L16.4062,46.40623125L16.4062,53.61333125Q16.2891,54.90233125,15,55.01953125Q13.7109,54.90233125,13.5938,53.61333125Z" fill="#000000" fill-opacity="1" style="mix-blend-mode:passthrough"/></g></g></g></svg>