<svg xmlns="http://www.w3.org/2000/svg" width="48" height="48" viewBox="0 0 48 48">
  <g id="total_load_icon" transform="translate(-556 -126)">
    <path id="Path_16967" data-name="Path 16967" d="M12,0a1.166,1.166,0,0,0-1.176,1.158,5.656,5.656,0,0,0,4.709,5.533c0,.155,0,.318,0,.476a3.243,3.243,0,0,0-2.306,3.074,3.175,3.175,0,0,0,.863,2.174l-11.376,6.1a1.178,1.178,0,0,0-.208.141A2.974,2.974,0,0,0,0,21.568V37.044A2.986,2.986,0,0,0,3.008,40H29.72a2.984,2.984,0,0,0,3.008-2.956V21.568a2.97,2.97,0,0,0-2.19-2.845,1.172,1.172,0,0,0-.286-.215L18.9,12.423a3.176,3.176,0,0,0,.87-2.182,1.176,1.176,0,0,0-2.352,0,.915.915,0,1,1-1.195-.856,1.657,1.657,0,0,0,1.667-1.669c.006-.3,0-.732,0-1.1a5.649,5.649,0,0,0,4.364-5.461A1.166,1.166,0,0,0,21.076,0Zm4.537,4.462a3.367,3.367,0,0,1-3.148-2.146h6.3A3.367,3.367,0,0,1,16.539,4.462Zm8.985,14.15H7.448l9.04-4.843ZM2.352,21.565a.65.65,0,0,1,.655-.64H4.771V35.074a1.176,1.176,0,0,0,2.352,0V20.925H9.977V35.074a1.176,1.176,0,0,0,2.352,0V20.925h2.858V35.074a1.176,1.176,0,0,0,2.352,0V20.925h2.854V35.074a1.176,1.176,0,0,0,2.352,0V20.925H25.6V35.074a1.176,1.176,0,0,0,2.352,0V20.925H29.72a.648.648,0,0,1,.655.64V37.041a.65.65,0,0,1-.655.64H3.008a.648.648,0,0,1-.655-.64Z" transform="translate(563.621 129.981)" fill="#131722" fill-rule="evenodd"/>
    <rect id="Rectangle_4968" data-name="Rectangle 4968" width="48" height="48" transform="translate(556 126)" fill="none"/>
    <path id="Path_17026" data-name="Path 17026" d="M10.478,0A1.174,1.174,0,0,0,9.294,1.165a5.692,5.692,0,0,0,4.74,5.569c0,.156,0,.32,0,.479a3.264,3.264,0,0,0-2.321,3.094,3.2,3.2,0,0,0,.869,2.188c.9.986,3.753,1.346,4.833.008a3.2,3.2,0,0,0,.876-2.2,1.184,1.184,0,0,0-2.368,0,.921.921,0,1,1-1.2-.862A1.668,1.668,0,0,0,16.4,7.765c.006-.3,0-.737,0-1.1a5.685,5.685,0,0,0,4.392-5.5A1.174,1.174,0,0,0,19.61,0Zm4.566,4.491a3.388,3.388,0,0,1-3.169-2.16h6.337A3.388,3.388,0,0,1,15.044,4.491Z" transform="translate(564.956 129.981)" fill="#19be8a" stroke="#19be8a" stroke-width="0.3" fill-rule="evenodd"/>
  </g>
</svg>
