<svg id="tracking_icon" xmlns="http://www.w3.org/2000/svg" width="24" height="24" viewBox="0 0 24 24">
  <g id="Group_21234" data-name="Group 21234">
    <path id="Path_16999" data-name="Path 16999" d="M27.333,17.333H25.3A7.344,7.344,0,0,0,18.667,10.7V8.667a.667.667,0,1,0-1.333,0V10.7A7.344,7.344,0,0,0,10.7,17.333H8.667a.667.667,0,1,0,0,1.333H10.7A7.344,7.344,0,0,0,17.333,25.3v2.031a.667.667,0,1,0,1.333,0V25.3A7.344,7.344,0,0,0,25.3,18.667h2.031a.667.667,0,1,0,0-1.333ZM18,24a6,6,0,1,1,6-6A6,6,0,0,1,18,24Zm0-9.333A3.333,3.333,0,1,0,21.333,18,3.333,3.333,0,0,0,18,14.667ZM18,20a2,2,0,1,1,2-2A2,2,0,0,1,18,20Z" transform="translate(-6 -6)" fill="#18be8a"/>
  </g>
  <rect id="Rectangle_4993" data-name="Rectangle 4993" width="24" height="24" fill="none"/>
</svg>
