<svg xmlns="http://www.w3.org/2000/svg" width="24" height="24" viewBox="0 0 24 24">
  <g id="train_station_icon" transform="translate(3916 -5970)">
    <rect id="Rectangle_5225" data-name="Rectangle 5225" width="24" height="24" rx="4" transform="translate(-3916 5970)" fill="#334ffc"/>
    <path id="train_24dp_FILL1_wght400_GRAD0_opsz24" d="M160-866.5V-876a3.1,3.1,0,0,1,.688-2.113,4.328,4.328,0,0,1,1.813-1.2,10.3,10.3,0,0,1,2.562-.55Q166.5-880,168-880q1.65,0,3.113.138a9.8,9.8,0,0,1,2.55.55,3.885,3.885,0,0,1,1.712,1.2A3.3,3.3,0,0,1,176-876v9.5a3.381,3.381,0,0,1-1.012,2.488A3.381,3.381,0,0,1,172.5-863l1.5,1.5v.5h-2l-2-2h-4l-2,2h-2v-.5l1.5-1.5a3.381,3.381,0,0,1-2.488-1.013A3.381,3.381,0,0,1,160-866.5Zm2-5.5h5v-3h-5Zm7,0h5v-3h-5Zm-4.5,6a1.457,1.457,0,0,0,1.075-.425A1.457,1.457,0,0,0,166-867.5a1.457,1.457,0,0,0-.425-1.075A1.457,1.457,0,0,0,164.5-869a1.457,1.457,0,0,0-1.075.425A1.457,1.457,0,0,0,163-867.5a1.457,1.457,0,0,0,.425,1.075A1.457,1.457,0,0,0,164.5-866Zm7,0a1.457,1.457,0,0,0,1.075-.425A1.457,1.457,0,0,0,173-867.5a1.457,1.457,0,0,0-.425-1.075A1.457,1.457,0,0,0,171.5-869a1.457,1.457,0,0,0-1.075.425A1.457,1.457,0,0,0,170-867.5a1.457,1.457,0,0,0,.425,1.075A1.457,1.457,0,0,0,171.5-866Z" transform="translate(-4072.039 6852.453)" fill="#fff"/>
  </g>
</svg>
