<svg xmlns="http://www.w3.org/2000/svg" xmlns:xlink="http://www.w3.org/1999/xlink" fill="none" version="1.1" width="37.5" height="30" viewBox="0 0 37.5 30"><defs><clipPath id="master_svg0_1_140"><rect x="0" y="0" width="37.5" height="30" rx="0"/></clipPath></defs><g clip-path="url(#master_svg0_1_140)"><g transform="matrix(1,0,0,-1,0,61.2890625)"><g><path d="M2.8125,60.64453125Q1.64062,60.58593125,0.820312,59.82423125Q0.0585938,59.00393125,0,57.83203125L0,39.08203125Q0.0585938,37.91015125,0.820312,37.08984125Q1.64062,36.32812125,2.8125,36.26953125L3.75,36.26953125Q3.80859,33.86719125,5.39062,32.28515125Q6.97266,30.70312505,9.375,30.64453125Q11.7773,30.70312505,13.3594,32.28515125Q14.9414,33.86719125,15,36.26953125L22.5,36.26953125Q22.5586,33.86719125,24.1406,32.28515125Q25.7227,30.70312505,28.125,30.64453125Q30.5273,30.70312505,32.1094,32.28515125Q33.6914,33.86719125,33.75,36.26953125L35.625,36.26953125Q36.4453,36.26953125,36.9727,36.79687125Q37.5,37.32422125,37.5,38.14453125Q37.5,38.96484125,36.9727,39.49219125Q36.4453,40.01953125,35.625,40.01953125L35.625,43.76953125L35.625,45.64453125L35.625,46.757831249999995Q35.625,48.281231250000005,34.5117,49.39453125L30,53.906231250000005Q28.8867,55.01953125,27.3633,55.01953125L24.375,55.01953125L24.375,57.83203125Q24.3164,59.00393125,23.5547,59.82423125Q22.7344,60.58593125,21.5625,60.64453125L2.8125,60.64453125ZM24.375,51.26953125L27.3633,51.26953125L24.375,51.26953125L27.3633,51.26953125L31.875,46.757831249999995L31.875,45.64453125L24.375,45.64453125L24.375,51.26953125ZM6.5625,36.26953125Q6.62109,37.85156125,7.96875,38.73047125Q9.375,39.43359125,10.7812,38.73047125Q12.1289,37.85156125,12.1875,36.26953125Q12.1289,34.68750125,10.7812,33.80859125Q9.375,33.10547125,7.96875,33.80859125Q6.62109,34.68750125,6.5625,36.26953125ZM28.125,39.08203125Q29.707,39.02344125,30.5859,37.67578125Q31.2891,36.26953125,30.5859,34.86328125Q29.707,33.51562125,28.125,33.45703125Q26.543,33.51562125,25.6641,34.86328125Q24.9609,36.26953125,25.6641,37.67578125Q26.543,39.02344125,28.125,39.08203125Z" fill="#000000" fill-opacity="1" style="mix-blend-mode:passthrough"/></g></g></g></svg>