<svg xmlns="http://www.w3.org/2000/svg" width="24" height="24" viewBox="0 0 24 24">
  <g id="Group_19768" data-name="Group 19768" transform="translate(-0.391 -0.391)">
    <g id="upload" transform="translate(1.006 4.414)">
      <path id="Path_27300" data-name="Path 27300" d="M14.543,13.451l-2.284-2.284a.571.571,0,0,0-.808,0L9.167,13.451a.571.571,0,1,0,.808.808l1.31-1.31v6.615a.571.571,0,1,0,1.142,0V12.949l1.31,1.31a.571.571,0,1,0,.808-.808Z" transform="translate(-1.005 -4.148)" fill="#3351ff"/>
      <path id="Path_27301" data-name="Path 27301" d="M19.7,9.569a7.418,7.418,0,0,0-14.25,2.339,3.984,3.984,0,0,0-3.432,4.347A4.129,4.129,0,0,0,6.19,19.846h4.375a.571.571,0,0,0,0-1.142H6.129a2.956,2.956,0,0,1-2.841-1.952,2.848,2.848,0,0,1,2.318-3.713A1.257,1.257,0,0,0,6.6,11.921a6.319,6.319,0,0,1,9.236-5.063,6.214,6.214,0,0,1,2.827,3.175,1.142,1.142,0,0,0,.949.672,4.2,4.2,0,0,1,3.7,2.219A4.027,4.027,0,0,1,19.7,18.708H15.131a.571.571,0,1,0,0,1.142h4.347a5.288,5.288,0,0,0,5.336-4.634A5.14,5.14,0,0,0,19.7,9.569Z" transform="translate(-1.999 -5.001)" fill="#3351ff"/>
    </g>
    <rect id="Rectangle_4282" data-name="Rectangle 4282" width="24" height="24" transform="translate(0.391 0.391)" fill="none"/>
  </g>
</svg>
