<svg xmlns="http://www.w3.org/2000/svg" width="48" height="48" viewBox="0 0 48 48">
  <g id="wagons_unloaded_icon" transform="translate(-1232 -120)">
    <g id="Group_21112" data-name="Group 21112">
      <rect id="Rectangle_4967" data-name="Rectangle 4967" width="48" height="48" transform="translate(1232 120)" fill="none"/>
      <g id="Group_21110" data-name="Group 21110" transform="translate(-2.9 -3.209)">
        <g id="Group_21109" data-name="Group 21109" transform="translate(1239 125.2)">
          <g id="Group_21097" data-name="Group 21097" transform="translate(1.163 16.58)">
            <path id="Path_16963" data-name="Path 16963" d="M10.17,29.653H12.5a3.79,3.79,0,0,0,6.17,2.926,3.787,3.787,0,0,0,6.167-2.926h5.075a3.79,3.79,0,0,0,6.171,2.925,3.786,3.786,0,0,0,6.166-2.925H44.8a1.416,1.416,0,0,0,1.413-1.413V7.413A1.416,1.416,0,0,0,44.8,6H10.17A1.416,1.416,0,0,0,8.758,7.413V28.24A1.416,1.416,0,0,0,10.17,29.653Zm30.694-2.459,0,0,0,0a3.461,3.461,0,0,0-.366-.313,3.4,3.4,0,0,0-4.129.054,3.481,3.481,0,0,0-.277.241,3.452,3.452,0,0,0-.277-.241,3.412,3.412,0,0,0-4.11-.072,3.482,3.482,0,0,0-.29.236q-.054.049-.107.1H23.564a1.035,1.035,0,0,0-.1.005,3.465,3.465,0,0,0-.343-.3,3.412,3.412,0,0,0-4.165.028,3.454,3.454,0,0,0-.277.241,3.413,3.413,0,0,0-4.378-.317q-.138.1-.265.212-.071.063-.138.129a3.414,3.414,0,0,1,4.781-.025,3.414,3.414,0,0,1,4.786.03,1.035,1.035,0,0,1,.1-.005H31.3a3.414,3.414,0,0,1,4.783-.022,3.406,3.406,0,0,1,4.774.02Zm2.528-.366H41.01a3.77,3.77,0,0,0-4.922-.145,3.779,3.779,0,0,0-4.929.145H23.6a3.779,3.779,0,0,0-4.927-.147,3.779,3.779,0,0,0-4.927.147H11.583v-18H43.392Zm-8.355,2.8a1.327,1.327,0,0,1-1.329,1.329,1.33,1.33,0,0,0,.937-2.272,1.347,1.347,0,0,1,.118.135A1.33,1.33,0,0,1,35.037,29.632Zm-17.808-.948a1.33,1.33,0,0,1-.932,2.278,1.329,1.329,0,0,0,1.051-2.143A1.34,1.34,0,0,0,17.229,28.683Zm-4.359.949A3.407,3.407,0,0,0,13.825,32a3.407,3.407,0,0,1-.955-2.345ZM31.236,32a3.407,3.407,0,0,1-.954-2.365v.021A3.407,3.407,0,0,0,31.236,32ZM15.329,29.632a.965.965,0,1,1,.968.963A.97.97,0,0,1,15.329,29.632Zm4.756,0a.965.965,0,1,1,.968.963A.97.97,0,0,1,20.084,29.632Zm12.656,0a.965.965,0,1,1,.968.963A.97.97,0,0,1,32.74,29.632Zm4.761,0a.963.963,0,1,1,.963.963A.966.966,0,0,1,37.5,29.632Z" transform="translate(-8.758 -6)" fill="#131722" fill-rule="evenodd"/>
            <path id="Path_16966" data-name="Path 16966" d="M11.655,18.757a1.414,1.414,0,0,0,0,2.829H44.042a1.414,1.414,0,0,0,0-2.829Z" transform="translate(-9.161 -9.476)" fill="#131722" fill-rule="evenodd"/>
          </g>
          <rect id="Rectangle_4974" data-name="Rectangle 4974" width="39.756" height="17.812" transform="translate(0 12.504)" fill="#fff"/>
          <g id="Group_21108" data-name="Group 21108" transform="translate(1.163 0)">
            <path id="Path_16967" data-name="Path 16967" d="M10.3,0a1,1,0,0,0-1.01.994,4.855,4.855,0,0,0,4.043,4.75c0,.133,0,.273,0,.408a2.784,2.784,0,0,0-1.98,2.639,2.725,2.725,0,0,0,.741,1.867L2.334,15.891a1.011,1.011,0,0,0-.178.121A2.553,2.553,0,0,0,0,18.515H28.094c0-1.161-2.032-2.577-2.125-2.627l-9.748-5.224a2.726,2.726,0,0,0,.747-1.873,1.01,1.01,0,0,0-2.019,0,.786.786,0,1,1-1.026-.735,1.423,1.423,0,0,0,1.431-1.433c0-.26,0-.628,0-.94A4.849,4.849,0,0,0,19.1.994,1,1,0,0,0,18.093,0ZM14.2,3.83a2.89,2.89,0,0,1-2.7-1.842h5.4A2.89,2.89,0,0,1,14.2,3.83Zm7.713,12.147H6.393l7.76-4.157Z" transform="translate(4.682 0)" fill="#131722" fill-rule="evenodd"/>
            <g id="Rectangle_4973" data-name="Rectangle 4973" transform="translate(0 15.691)" fill="#fff" stroke="#19be8a" stroke-width="2.75">
              <rect width="37.415" height="11.706" rx="1" stroke="none"/>
              <rect x="1.375" y="1.375" width="34.665" height="8.956" rx="0.375" fill="none"/>
            </g>
          </g>
        </g>
      </g>
    </g>
  </g>
</svg>
