<svg xmlns="http://www.w3.org/2000/svg" width="48" height="48" viewBox="0 0 48 48">
  <g id="wagons_loaded_icon" transform="translate(-271.069 -332.069)">
    <g id="Group_21097" data-name="Group 21097" transform="translate(275.069 341.4)">
      <path id="Path_16963" data-name="Path 16963" d="M10.266,31.257h2.492a4.047,4.047,0,0,0,6.588,3.125,4.044,4.044,0,0,0,6.585-3.125H31.35a4.047,4.047,0,0,0,6.589,3.124,4.043,4.043,0,0,0,6.584-3.124h2.726a1.512,1.512,0,0,0,1.508-1.508V7.508A1.512,1.512,0,0,0,47.249,6H10.266A1.512,1.512,0,0,0,8.758,7.508v22.24A1.512,1.512,0,0,0,10.266,31.257Zm32.776-2.626,0,0,0,0a3.7,3.7,0,0,0-.391-.335,3.634,3.634,0,0,0-4.409.058,3.717,3.717,0,0,0-.3.258,3.686,3.686,0,0,0-.3-.258,3.644,3.644,0,0,0-4.389-.077,3.717,3.717,0,0,0-.31.252q-.058.053-.114.108H24.568a1.1,1.1,0,0,0-.11.005,3.7,3.7,0,0,0-.367-.319,3.644,3.644,0,0,0-4.448.03,3.687,3.687,0,0,0-.3.257,3.644,3.644,0,0,0-4.674-.338q-.147.107-.283.227-.075.067-.147.138a3.646,3.646,0,0,1,5.105-.026,3.645,3.645,0,0,1,5.111.032,1.1,1.1,0,0,1,.11-.005h8.266a3.646,3.646,0,0,1,5.107-.024,3.637,3.637,0,0,1,5.1.022Zm2.7-.391H43.2a4.026,4.026,0,0,0-5.256-.155,4.036,4.036,0,0,0-5.263.155h-8.07a4.035,4.035,0,0,0-5.261-.157,4.036,4.036,0,0,0-5.261.157H11.775V9.017H45.741Zm-8.922,2.994A1.417,1.417,0,0,1,35.4,32.654a1.42,1.42,0,0,0,1-2.427,1.438,1.438,0,0,1,.126.144A1.42,1.42,0,0,1,36.819,31.235ZM17.8,30.222a1.42,1.42,0,0,1-1,2.432,1.42,1.42,0,0,0,1.122-2.289A1.432,1.432,0,0,0,17.8,30.222Zm-4.654,1.013a3.638,3.638,0,0,0,1.019,2.526,3.638,3.638,0,0,1-1.019-2.5ZM32.76,33.761a3.638,3.638,0,0,1-1.019-2.526v.022A3.638,3.638,0,0,0,32.76,33.761ZM15.774,31.235a1.031,1.031,0,1,1,1.034,1.028A1.036,1.036,0,0,1,15.774,31.235Zm5.078,0a1.031,1.031,0,1,1,1.034,1.028A1.036,1.036,0,0,1,20.853,31.235Zm13.514,0A1.031,1.031,0,1,1,35.4,32.263,1.036,1.036,0,0,1,34.367,31.235Zm5.084,0a1.028,1.028,0,1,1,1.028,1.028A1.031,1.031,0,0,1,39.45,31.235Z" transform="translate(-8.758 -6)" fill="#131722" fill-rule="evenodd"/>
      <path id="Path_16966" data-name="Path 16966" d="M10.243,18.813v3.019l33.974.079V18.892Z" transform="translate(-7.229 -8.846)" fill="#19be8a" fill-rule="evenodd"/>
    </g>
    <rect id="Rectangle_4967" data-name="Rectangle 4967" width="48" height="48" transform="translate(271.069 332.069)" fill="none"/>
  </g>
</svg>
