<svg viewBox="0 0 512 512" xmlns="http://www.w3.org/2000/svg" fill="#000000" transform="matrix(1, 0, 0, 1, 0, 0)" stroke="#000000">
  <g id="SVGRepo_bgCarrier" stroke-width="0"></g>
  <g id="SVGRepo_tracerCarrier" stroke-linecap="round" stroke-linejoin="round" stroke="#CCCCCC" stroke-width="10.24">
    <path fill="#000000" d="M256 46c-45.074 0-82 36.926-82 82 0 25.812 12.123 48.936 30.938 64H128L32 480h448l-96-288h-76.938C325.877 176.936 338 153.812 338 128c0-45.074-36.926-82-82-82zm0 36c25.618 0 46 20.382 46 46s-20.382 46-46 46-46-20.382-46-46 20.382-46 46-46zm-90 202h23v80h22v-60l18 18 18-18v60h22v-80h23v80h-15l-30-30-30 30h-15v-80z"/>
  </g>
  <g id="SVGRepo_iconCarrier">
    <path fill="#000000" d="M256 46c-45.074 0-82 36.926-82 82 0 25.812 12.123 48.936 30.938 64H128L32 480h448l-96-288h-76.938C325.877 176.936 338 153.812 338 128c0-45.074-36.926-82-82-82zm0 36c25.618 0 46 20.382 46 46s-20.382 46-46 46-46-20.382-46-46 20.382-46 46-46zm-90 202h23v80h22v-60l18 18 18-18v60h22v-80h23v80h-15l-30-30-30 30h-15v-80z"/>
  </g>
</svg>
