<svg xmlns="http://www.w3.org/2000/svg" xmlns:xlink="http://www.w3.org/1999/xlink" width="35" height="33" viewBox="0 0 35 33">
  <defs>
    <clipPath id="clip-whatsapp">
      <rect width="35" height="33"/>
    </clipPath>
  </defs>
  <g id="whatsapp" clip-path="url(#clip-whatsapp)">
    <g id="Group_2544" data-name="Group 2544" transform="translate(0.7)">
      <g id="Ellipse_151" data-name="Ellipse 151" transform="translate(0 0.4)" fill="none" stroke="#00a72d" stroke-width="1.5">
        <ellipse cx="17" cy="16" rx="17" ry="16" stroke="none"/>
        <ellipse cx="17" cy="16" rx="16.25" ry="15.25" fill="none"/>
      </g>
    </g>
    <g id="Group_2587" data-name="Group 2587" transform="translate(-389.684 -189.986)">
      <path id="Path_1375" data-name="Path 1375" d="M408.251,216.655a9.855,9.855,0,0,1-5.017-1.181,1.512,1.512,0,0,0-1.362-.091c-1.4.5-2.812.953-4.221,1.419-.078.026-.169.11-.248.035s.006-.17.031-.247q.766-2.317,1.546-4.629a.49.49,0,0,0-.047-.467,10.151,10.151,0,0,1-1.364-3.422,13.357,13.357,0,0,1-.213-1.6,10.1,10.1,0,0,1,.336-3.392,10.572,10.572,0,0,1,2.158-4.18,10.85,10.85,0,0,1,3.507-2.775,10.268,10.268,0,0,1,3.03-.973,10.449,10.449,0,0,1,2.092-.156,11.24,11.24,0,0,1,4.168.973,10.968,10.968,0,0,1,3.643,2.684,10.74,10.74,0,0,1,2,3.285,10.993,10.993,0,0,1,.683,2.834,10.339,10.339,0,0,1-.114,2.912,10.589,10.589,0,0,1-1.081,3.191,11.813,11.813,0,0,1-1.483,2.14,10.835,10.835,0,0,1-6.683,3.583A6.077,6.077,0,0,1,408.251,216.655Z" transform="translate(0 0)" fill="#f2f2f2"/>
      <path id="Path_1376" data-name="Path 1376" d="M438.257,252.516c.353-1.064.683-2.07,1.023-3.072a.4.4,0,0,0-.048-.4,8.831,8.831,0,1,1,8.868,3.763,8.6,8.6,0,0,1-6.317-1.269.462.462,0,0,0-.447-.054C440.328,251.828,439.318,252.161,438.257,252.516Z" transform="translate(-38.382 -38.259)" fill="#00a72d"/>
      <path id="Path_1377" data-name="Path 1377" d="M506.029,297.6c0-1.452,1.107-2.423,2.245-2.067,1.074.336.822.089,1.19,1.274.144.464.27.935.414,1.4a.526.526,0,0,1-.14.583c-.273.263-.544.528-.82.786a.548.548,0,0,0-.133.678,8.562,8.562,0,0,0,2.6,3.527c.254.2.38.194.622-.035.268-.254.536-.509.8-.77a.4.4,0,0,1,.55-.065c.567.353,1.134.708,1.7,1.058a.486.486,0,0,1,.252.422,5.8,5.8,0,0,1,.051,1.357,1.771,1.771,0,0,1-2.294,1.546c-3.516-1.325-5.788-4.028-6.783-8.116A9.323,9.323,0,0,1,506.029,297.6Z" transform="translate(-102.542 -95.467)" fill="#f2f2f2"/>
    </g>
  </g>
</svg>
